<svg width="570" height="195" viewBox="0 0 570 195" fill="none" xmlns="http://www.w3.org/2000/svg">
<path fill-rule="evenodd" clip-rule="evenodd" d="M418.562 67.2641C418.562 39.7457 396.066 17.5498 368.672 17.5498C341.082 17.5498 318.427 39.9037 318.427 67.6169V167.492H339.696V67.6169C339.696 51.774 352.705 38.8186 368.672 38.8186C384.444 38.8186 397.293 51.6161 397.293 67.2641C397.293 82.9741 384.557 95.7096 368.847 95.7096H355.171V116.978H368.847C396.304 116.978 418.562 94.7206 418.562 67.2641Z" fill="#221037"/>
<path fill-rule="evenodd" clip-rule="evenodd" d="M469.864 67.2641C469.864 39.7457 492.36 17.5498 519.754 17.5498C547.343 17.5498 569.998 39.9037 569.998 67.6169V117.052H548.73V67.6169C548.73 51.774 535.721 38.8186 519.754 38.8186C503.982 38.8186 491.133 51.6161 491.133 67.2641C491.133 82.9741 503.869 95.7096 519.579 95.7096H533.255V116.978H519.579C492.122 116.978 469.864 94.7206 469.864 67.2641Z" fill="#221037"/>
<path fill-rule="evenodd" clip-rule="evenodd" d="M49.2496 95.9787C64.8153 95.9787 77.4338 83.3602 77.4338 67.7945C77.4338 52.2288 64.8153 39.6104 49.2496 39.6104C33.6839 39.6104 21.0654 52.2288 21.0654 67.7945C21.0654 83.3602 33.6839 95.9787 49.2496 95.9787ZM49.2496 116.979C76.4133 116.979 98.4338 94.9582 98.4338 67.7945C98.4338 40.6309 76.4133 18.6104 49.2496 18.6104C22.0859 18.6104 0.0654297 40.6309 0.0654297 67.7945C0.0654297 94.9582 22.0859 116.979 49.2496 116.979Z" fill="#221037"/>
<path fill-rule="evenodd" clip-rule="evenodd" d="M49.3634 155.058C56.8666 155.058 64.0625 152.077 69.3681 146.771C74.6737 141.466 77.6543 134.27 77.6543 126.767L98.6543 126.767C98.6543 139.84 93.4612 152.377 84.2173 161.621C74.9735 170.864 62.4362 176.058 49.3634 176.058C36.2907 176.058 23.7534 170.864 14.5095 161.621C5.2657 152.377 0.072574 139.839 0.0725751 126.767L21.0726 126.767C21.0726 134.27 24.0532 141.466 29.3588 146.771C34.6643 152.077 41.8602 155.058 49.3634 155.058Z" fill="#221037"/>
<path fill-rule="evenodd" clip-rule="evenodd" d="M151.724 85.3107V17.0132H172.757V85.3107C172.757 91.1189 177.465 95.8274 183.274 95.8274H195.894V116.861H183.274C165.849 116.861 151.724 102.735 151.724 85.3107Z" fill="#221037"/>
<path d="M433.418 55.8306H454.687V118.308H433.418V55.8306Z" fill="#221037"/>
<path d="M433.418 37.7344H454.687V16.4655H433.418V37.7344Z" fill="#221037"/>
<path d="M114.385 55.8306H135.654V116.978H114.385V55.8306Z" fill="#221037"/>
<path d="M114.385 37.7344H135.654V16.4655H114.385V37.7344Z" fill="#221037"/>
<path fill-rule="evenodd" clip-rule="evenodd" d="M287.195 69.1238C287.195 85.2752 274.101 98.3685 257.95 98.3685C241.799 98.3685 228.705 85.2752 228.705 69.1238C228.705 52.9725 241.799 39.8792 257.95 39.8792C274.101 39.8792 287.195 52.9725 287.195 69.1238ZM308.463 69.1238C308.463 97.0216 285.848 119.637 257.95 119.637C230.052 119.637 207.437 97.0216 207.437 69.1238C207.437 41.226 230.052 18.6104 257.95 18.6104C285.848 18.6104 308.463 41.226 308.463 69.1238Z" fill="#221037"/>
<path d="M172.755 42.0664H193.788V63.0998H172.755V42.0664Z" fill="#221037"/>
<path d="M38 0H60V24H38V0Z" fill="#221037"/>
<path d="M38 170H60V195H38V170Z" fill="#221037"/>
</svg>
