<svg xmlns="http://www.w3.org/2000/svg" width="244.522" height="57"><g data-name="Group 3"><g data-name="Group 2"><g fill-rule="evenodd"><path d="M33.848 26.523c.039 9.468-.016 8.807.885 10.645 3.684 7.5 15.133 5.082 15.6-3.3a8.274 8.274 0 00-13.198-7.045l-.628.47-.027-4.585-.028-4.585h-2.638l.034 8.4m-12.923-7.98a8.337 8.337 0 00-5.69 4.48c-.863 1.77-.9 2.276-.905 11.405v7.507h2.632v-4.584c0-2.521.026-4.583.058-4.583a4.412 4.412 0 01.606.407 8.264 8.264 0 103.3-14.63m3.046 2.583a5.608 5.608 0 11-4.825 1.061 5.631 5.631 0 014.825-1.061m19.58 6.857a5.614 5.614 0 11-4.745.865 5.636 5.636 0 014.745-.865" fill="#fbfbfb"/><path d="M65.745 27.031c0 11.641-.028 11.1.587 11.43a2.592 2.592 0 001.855-.041c.477-.316.506-.59.506-4.509V30.24h3.5c5.457 0 6.287-.284 7.369-2.5l.349-.713v-7.585l-.343-.7a4.828 4.828 0 00-1.85-1.928c-1.03-.482-.98-.479-6.618-.479h-5.355v10.7m82.391.476v11.172l4.768-.039 4.768-.039.829-.288c2.685-.931 3.856-2.747 3.856-5.971a6.093 6.093 0 00-1.31-4.348l-.453-.556.443-.49c1.976-2.182 1.743-7.152-.427-9.136-1.482-1.355-2.174-1.485-7.9-1.485h-4.577v11.176m45.1-8.942c-.648.343-.741.678-.741 2.678v1.828l-.711.006c-1.372.011-2.081.512-2.081 1.47 0 .994.506 1.365 1.871 1.368h.922v4.65c0 5.652.011 5.716 1.166 6.851a3.975 3.975 0 001.678 1.025 18.25 18.25 0 005 .03c2.852-.8 4.091-4.963 1.475-4.963a1.539 1.539 0 00-1.528 1.4c0 .684-1.4 1.055-3.287.869-1.7-.166-1.662-.052-1.662-5.481v-4.377h2.766c3.355 0 3.766-.154 3.766-1.4 0-1.185-.678-1.43-3.977-1.438l-2.558-.006v-1.66c0-1.833-.082-2.293-.472-2.659a1.827 1.827 0 00-1.631-.19m-117.048.885c.772.309.827.564.831 3.8 0 4.27.356 3.966-4.66 4.014l-3.661.034v-8.017h3.527c3.038 0 3.588.025 3.963.174m81.252-.019c2.432.738 2.773 5.021.5 6.233-.333.177-.687.2-3.608.229l-3.24.032v-6.649h2.924a16.349 16.349 0 013.428.154m-69.954 3.793c-.75.326-.716-.006-.751 7.27-.04 8.106-.059 7.972 1.141 8.13 1.529.2 1.622-.074 1.666-4.911l.036-3.951 2.051-1.686c2.549-2.1 2.572-2.109 3.73-2.1 1.485.01 2 .389 2 1.487 0 1.429 1.046 2.3 2.139 1.777 1.168-.554.976-3.435-.326-4.868-.9-.991-1.833-1.3-3.959-1.3-2.014 0-2.292.12-4.512 1.953l-1.085.9-.063-.9c-.114-1.621-.9-2.3-2.062-1.8m23.874 0a8.782 8.782 0 00-3.71 3.055c-.361.661-.418 8.408-.067 9.188a10.634 10.634 0 003.045 2.935c.6.319 9.04.3 9.587-.019a1.486 1.486 0 00.472-1.948c-.3-.575-.506-.6-4.754-.648-4.457-.047-4.235 0-5.174-1.047-.537-.6-.553-.632-.553-1.249v-.632h4.873c6.35 0 5.816.337 5.749-3.63-.051-3.069-.1-3.19-2.036-4.745a5.04 5.04 0 00-2.35-1.3 25.919 25.919 0 00-5.087.04m17.34-.011c-.8.354-.734-.562-.766 10.405-.032 10.843-.063 10.33.639 10.693a1.936 1.936 0 001.665-.13c.427-.386.461-.632.516-3.837l.053-3.108.8.753c1.2 1.13 1.374 1.2 3.13 1.2 1.855 0 1.644.095 4.024-1.776 2.614-2.052 2.739-2.336 2.739-6.2s-.161-4.3-2.238-5.887c-.594-.453-1.144-.885-1.223-.963a4.368 4.368 0 00-3.281-1.29c-1.512 0-2.056.261-3.635 1.745l-.316.3-.059-.477c-.155-1.254-1.041-1.871-2.049-1.426m41.149.044c-.6.295-.728.7-.733 2.339a5.494 5.494 0 00.782 3.319c.2.443.372.822.372.841 0 .036.555 1.259 1.005 2.213.136.29.369.8.517 1.132l.539 1.212c.149.333.379.843.518 1.133s.344.75.461 1.023c.293.688.553.932 1.059 1 .531.071.569-.123-.316 1.7-.412.849-.843 1.745-.96 1.991l-.211.448h-1.153c-2 0-2.617.334-2.617 1.422 0 1.18.53 1.42 3.127 1.422 2.691 0 2.453.223 4.406-4.109.424-.941.655-1.446 1.422-3.108l.632-1.37c.807-1.749.988-2.142 1.21-2.634.337-.744.86-1.876 1.264-2.74.19-.405.6-1.283.909-1.949l.562-1.212v-1.637c0-2-.316-2.628-1.345-2.629-1.063 0-1.444.578-1.444 2.195a3.283 3.283 0 01-.316 1.878c-.174.375-.316.7-.316.72s-.237.542-.527 1.16-.527 1.138-.527 1.16c0 .038-.422.978-.948 2.106-.632 1.36-.85 1.843-.948 2.1a.353.353 0 01-.357.269c-.264 0-.291-.043-.988-1.58-.144-.316-.429-.935-.632-1.37-.583-1.25-.963-2.08-1.473-3.213-.26-.58-.563-1.24-.673-1.469a3.358 3.358 0 01-.2-1.549c0-2.031-.788-2.861-2.106-2.216m44.567-.044a5.763 5.763 0 00-2.254 1.433c-1.851 1.6-1.889 1.747-1.838 6.879.043 4.346-.071 4.007 1.967 5.832 1.5 1.347 1.034 1.251 6.128 1.251 5.306 0 5.483-.047 5.477-1.446-.006-1.255-.238-1.32-4.872-1.365-4.44-.043-4.265-.011-5.121-.918a2.168 2.168 0 01-.753-1.589v-.425h4.9c6.385 0 5.789.346 5.789-3.364v-2.486l-.339-.689c-.374-.759-.569-.959-2.013-2.074-1.375-1.061-1.569-1.113-4.338-1.145a13.553 13.553 0 00-2.739.108m19.654.016a3.575 3.575 0 00-2.428 1.946.762.762 0 01-.166.372c-.516.319.033 2.828.778 3.552a6.994 6.994 0 002.286 1.319c.379.173 1.017.469 1.422.657s.927.424 1.159.526c4.381 1.914 4.814 2.257 4.328 3.419-.3.707-.475.742-3.907.74-3.321 0-3.524-.035-4.1-.673a1.542 1.542 0 00-2.276.259c-.6.973.171 2.13 1.987 2.979l.6.279h3.635c3.809 0 4.161-.034 5.094-.5a4.228 4.228 0 00.978-6.431 4.186 4.186 0 00-1.7-1.138l-1.8-.838c-.5-.231-.922-.421-.941-.421s-.394-.166-.833-.369l-1.608-.743a56.058 56.058 0 00-1.343-.6c-.706-.295-1.008-.577-1.008-.941 0-.6.285-.665 2.985-.7 3.092-.043 3.625.039 4.4.672 1.625 1.333 3.565-.553 2.063-2.005-1.522-1.47-1.757-1.53-5.969-1.517a21.05 21.05 0 00-3.631.151m-117.84 2.919a2.687 2.687 0 011.778 2.8l.005 1.08h-7.8v-1.277c0-1.454-.021-1.41 1.179-2.237a7.506 7.506 0 014.835-.367m19.109-.082a2.191 2.191 0 01.558.342c.225.216.468.419 1.237 1.037 1.517 1.22 1.564 1.336 1.511 4-.046 2.3 0 2.181-1.241 3.2a52.87 52.87 0 00-.843.711c-1.718 1.5-2.034 1.449-4.273-.669-1.568-1.483-1.517-1.367-1.523-3.487-.006-2.005.042-2.165.874-2.926.3-.274.9-.838 1.334-1.254 1.158-1.109 1.584-1.281 2.365-.955m83.925.082a5.332 5.332 0 011.041.783l.671.624.054 1.235.054 1.235h-7.961l.054-1.209c.063-1.384.133-1.551.9-2.07a4.269 4.269 0 00.559-.424c.276-.4 3.8-.534 4.632-.174m-61.253 3.177c1.78.987 1.94 4.741.248 5.811-.763.482-1.487.576-4.45.578h-2.713v-6.75l3.187.033 3.187.034.541.3" fill="#4c8cec"/><path d="M33.765 25.708c0 4.2.013 5.92.029 3.82s.016-5.538 0-7.639-.029-.379-.029 3.82m-11.4-4.666a2.281 2.281 0 00.58 0c.159-.024.028-.044-.29-.044s-.449.02-.29.044m5.9 5.563c0 .231.023.316.048.183a1.156 1.156 0 000-.421c-.027-.1-.047.006-.046.238m5.476 7.112c0 .2.021.286.048.184a.863.863 0 000-.369c-.027-.1-.048-.018-.048.185m-11.274 1.234a1.876 1.876 0 00.527 0c.13-.025 0-.045-.291-.044s-.4.021-.236.046" fill="#89b3f0"/><path d="M16.992 26.657c0 .26.02.367.046.237a1.491 1.491 0 000-.474c-.025-.13-.046-.024-.046.237m.02 10.694c0 2.55.014 3.577.03 2.284s.017-3.379 0-4.636-.03-.2-.03 2.352m18.916 1.666a2.607 2.607 0 00.343.343l.343.309-.31-.342c-.288-.319-.376-.391-.376-.31" fill="#b4ccf4"/></g><g data-name="prepbytes logo"><g data-name="Ellipse 1" fill="#4b8ce8" stroke="#4b8ce8"><circle cx="28.5" cy="28.5" r="28.5" stroke="none"/><circle cx="28.5" cy="28.5" r="28" fill="none"/></g><g data-name="Ellipse 2" transform="translate(13 17)" fill="none" stroke="#fff" stroke-width="2"><ellipse cx="7.5" cy="7" rx="7.5" ry="7" stroke="none"/><ellipse cx="7.5" cy="7" rx="6.5" ry="6"/></g><g data-name="Ellipse 3" transform="rotate(180 22 19.5)" fill="none" stroke="#fff" stroke-width="2"><ellipse cx="7" cy="8" rx="7" ry="8" stroke="none"/><ellipse cx="7" cy="8" rx="6" ry="7"/></g><path data-name="Rectangle 1" d="M13.275 24.128h1.9v13.908a.632.632 0 01-.632.632h-.636a.632.632 0 01-.632-.632z" fill="#fff"/><path data-name="Rectangle 2" d="M32.24 31.081h-1.9V17.173a.632.632 0 01.632-.632h.636a.632.632 0 01.632.632z" fill="#fff"/></g></g></g></svg>