<svg xmlns="http://www.w3.org/2000/svg" viewBox="0 0 49.02 49.23" xmlns:v="https://vecta.io/nano"><path d="M35.69 12.25l-2.49 1.56a2.57 2.57 0 0 0-3-.62l-4.78 2.3 2.24-2.11.63-.43a2.38 2.38 0 0 0 .72-.77q2.86-2.37 5.65-4.89c2.27-2-1-5.12-3.28-3.28L25.23 9.3l-.73.62-.22.15 3.5-3.36a2.09 2.09 0 0 0 .39-2.67l.37-.54c1.49-2.18-1.86-4.74-3.65-2.82L5.01 22.13a2.26 2.26 0 0 0-.64 1.8 24.86 24.86 0 0 0-3.93 4c-1.54 2 1.34 4.07 3.18 3.18l2.45-1.18a7.55 7.55 0 0 0-.49 2.18 2.35 2.35 0 0 0 3.5 2l2.79-1.7-.34.63a2.29 2.29 0 0 0 1.57 3.38l-6.48 5.8c-1.85 1.83.56 5.1 2.81 3.65l3.06-2-1.33 1.29c-1.86 1.8.59 5.16 2.81 3.65l11.15-7.52c.81-.38 1.6-.83 2.36-1.27a19.77 19.77 0 0 0 4.63-3.49 2.48 2.48 0 0 0-1.23-4l1.54-1.5a2.23 2.23 0 0 0 .18-3 2.34 2.34 0 0 0-1-4 26.51 26.51 0 0 0 3-4.83l3.87-3.31c2.05-1.72-.6-5.01-2.78-3.64z" fill="#79fc79"/><g fill="#2d2d2d"><path d="M33.03 22.37l.5-.12 1-.2 1.46-.23 1.75-.24.72-1.12a2.38 2.38 0 0 1 .37-.49 1.23 1.23 0 0 1 .59-.26 2.42 2.42 0 0 1 .65 0 1 1 0 0 1 .49.16.25.25 0 0 1 .06.34l-.66 1.2 2.21-.09a16.48 16.48 0 0 1 2 .09 8.23 8.23 0 0 1 1.68.32 2.74 2.74 0 0 1 1.13.6.39.39 0 0 1 .14.31.87.87 0 0 1-.06.32.76.76 0 0 1-.14.22c-.06 0-.1.06-.13 0a1.48 1.48 0 0 0-.91-.41 12 12 0 0 0-1.78-.16h-2.34l-2.49.2-.88 1.69q-.47.9-.93 1.86-.46.96-.9 1.89l-.8 1.8-.59 1.54a6 6 0 0 0-.3 1.16q0 .26-.06.57a3.27 3.27 0 0 0 0 .63 1.37 1.37 0 0 0 .17.54.59.59 0 0 0 .4.32 1.23 1.23 0 0 0 1.09-.33 9.45 9.45 0 0 0 1.38-1.3l1.49-1.81 1.41-1.9a.42.42 0 0 1 .31-.19.53.53 0 0 1 .3.09.64.64 0 0 1 .18.25.31.31 0 0 1-.07.3l-.34.55c-.19.33-.46.72-.77 1.18l-1.1 1.49a10.83 10.83 0 0 1-1.34 1.44 6.68 6.68 0 0 1-1.51 1 2.82 2.82 0 0 1-1.58.31 1.7 1.7 0 0 1-1.48-.93 2.56 2.56 0 0 1-.26-.85 6.24 6.24 0 0 1-.07-1 8.69 8.69 0 0 1 .4-2.33 24.44 24.44 0 0 1 .94-2.67l1.26-2.71 1.32-2.45c-.57 0-1.11.11-1.6.17l-1.31.15-.89.11-.37.07a.27.27 0 0 1-.28-.07.4.4 0 0 1-.15-.29.54.54 0 0 1 .12-.4 1.11 1.11 0 0 1 .57-.32z"/><path d="M30.16 25.92a.7.7 0 0 1 .35.17 2 2 0 0 1 .32.33 1 1 0 0 1 .17.34c0 .1 0 .16-.1.17a1.82 1.82 0 0 0-.82.28 2.27 2.27 0 0 0-.64.54 2.11 2.11 0 0 0-.37.67 1.35 1.35 0 0 0-.06.68 5.19 5.19 0 0 0 .42 1.15q.34.7.72 1.56l2.38-1.43a12.45 12.45 0 0 0 2.27-1.84.37.37 0 0 1 .32-.08.75.75 0 0 1 .35.16.69.69 0 0 1 .21.32.36.36 0 0 1-.08.37 7.87 7.87 0 0 1-1.08 1.08c-.4.34-.82.65-1.25.95s-.89.57-1.35.83l-1.34.74a7.59 7.59 0 0 1 .29 1.26 3 3 0 0 1-.67 2.28 2.64 2.64 0 0 1-.85.65 3 3 0 0 1-1 .26 4 4 0 0 1-1 0 1.57 1.57 0 0 1-.75-.33 1.55 1.55 0 0 1-.39-.55 2 2 0 0 1-.13-.6 1.92 1.92 0 0 1 0-.49 2.11 2.11 0 0 1 .69-1.34 8.62 8.62 0 0 1 1.58-1.24l-.63-1.58a5.57 5.57 0 0 1-.41-1.46 3.74 3.74 0 0 1 .17-1.62 3.91 3.91 0 0 1 .72-1.25 3.06 3.06 0 0 1 1-.8 1.78 1.78 0 0 1 .96-.18zm-1.39 9.1a3.21 3.21 0 0 0-.06-1.05 6.31 6.31 0 0 0-1 .76 1.43 1.43 0 0 0-.48.76.89.89 0 0 0 .11.69.58.58 0 0 0 .48.27.8.8 0 0 0 .58-.33 2 2 0 0 0 .37-1.1z"/></g><path d="M21.74 39.81h-2.32a2.38 2.38 0 0 1-2.38-2.38v-19a1.32 1.32 0 0 0-1.32-1.31h-1.64a2.39 2.39 0 0 1-2.38-2.38V13.1a2.39 2.39 0 0 1 2.38-2.38h7.66a2.39 2.39 0 0 1 2.38 2.38v24.34a2.39 2.39 0 0 1-2.38 2.37zm-7.66-28a1.32 1.32 0 0 0-1.31 1.32v1.64a1.31 1.31 0 0 0 1.31 1.31h1.64a2.39 2.39 0 0 1 2.38 2.38v19a1.32 1.32 0 0 0 1.32 1.31h2.32a1.31 1.31 0 0 0 1.31-1.31V13.04a1.32 1.32 0 0 0-1.31-1.32z"/><g fill="#79fc79"><path d="M42.23 8.52a1.15 1.15 0 1 1-2.3 0 1.15 1.15 0 0 1 1.15-1.15 1.14 1.14 0 0 1 1.15 1.15z"/><circle cx="5.1" cy="37.15" r="1.28"/><path d="M3.29 17.19a.62.62 0 0 1-.62.62.61.61 0 0 1-.62-.62.62.62 0 1 1 1.24 0zm34.87 23.73a1.24 1.24 0 1 1-.363-.877 1.24 1.24 0 0 1 .363.877zm-.88-4.25a.52.52 0 0 1 .53-.53.53.53 0 1 1 0 1.06.53.53 0 0 1-.53-.53zm11.75-19.95a1.69 1.69 0 1 1-1.69-1.69 1.69 1.69 0 0 1 1.69 1.69z"/></g><path d="M4.67 28.44a1.06 1.06 0 0 1-2.12-.013 1.06 1.06 0 0 1 1.813-.743 1.06 1.06 0 0 1 .307.756z"/><circle cx="24.66" cy="4.93" r="1.37"/><circle cx="47.59" cy="37.68" r=".75"/><path d="M18.69 45.48a1.55 1.55 0 1 1-3.1 0 1.55 1.55 0 0 1 2.646-1.096 1.55 1.55 0 0 1 .454 1.096z"/><circle cx="39.17" cy="14.42" r=".48"/></svg>