<svg xmlns="http://www.w3.org/2000/svg" viewBox="0 0 54.02 49.23" xmlns:v="https://vecta.io/nano"><path d="M35.68 12.25l-2.48 1.56a2.59 2.59 0 0 0-3-.62l-4.77 2.3 2.24-2.11.62-.43a2.42 2.42 0 0 0 .73-.77l5.63-4.86c2.27-2-1-5.12-3.29-3.28l-6.14 5.29-.74.62-.21.15 3.49-3.36a2.08 2.08 0 0 0 .39-2.67l.38-.54c1.49-2.18-1.87-4.74-3.65-2.82L5 22.16a2.22 2.22 0 0 0-.64 1.8 24.05 24.05 0 0 0-3.93 4c-1.55 2 1.33 4.07 3.18 3.18l2.44-1.18a7.89 7.89 0 0 0-.48 2.18 2.34 2.34 0 0 0 3.49 2l2.79-1.72-.34.63a2.29 2.29 0 0 0 1.57 3.38l-6.48 5.8c-1.85 1.83.55 5.1 2.81 3.65l3.06-2-1.33 1.32c-1.86 1.8.58 5.16 2.81 3.65l11.19-7.52c.81-.38 1.59-.83 2.35-1.27a19.82 19.82 0 0 0 4.64-3.49 2.48 2.48 0 0 0-1.24-4l1.55-1.5a2.23 2.23 0 0 0 .18-3 2.34 2.34 0 0 0-1-4 27.65 27.65 0 0 0 3-4.83l3.87-3.31c2.02-1.76-.58-5.05-2.81-3.68z" fill="#79fc79"/><g fill="#2d2d2d"><path d="M44.88 25.98a2 2 0 0 1 .87.14l.6-1.76.75-1.8a16.63 16.63 0 0 1 .88-1.68 10.55 10.55 0 0 1 1-1.39 5.14 5.14 0 0 1 1.05-1 2 2 0 0 1 1.08-.35.91.91 0 0 1 .85.42 2.55 2.55 0 0 1 .27 1.25 6.69 6.69 0 0 1-.17 1.47 19.14 19.14 0 0 1-.54 1.92l-.86 2.16-1.11 2.25a21.48 21.48 0 0 1-1.32 2.16 16.27 16.27 0 0 1-1.49 1.9 2.06 2.06 0 0 0 .65 1 1.6 1.6 0 0 0 1.18.28 2 2 0 0 0 1-.38 4.8 4.8 0 0 0 .89-.81 8.84 8.84 0 0 0 .76-1l.6-1c.17-.28.32-.61.42-.84s.18-.37.21-.42a.51.51 0 0 1 .34-.23.63.63 0 0 1 .41 0 .37.37 0 0 1 .24.23.52.52 0 0 1-.11.46 7.75 7.75 0 0 0-.43.8c-.16.33-.35.68-.56 1l-.7 1.11a5.53 5.53 0 0 1-.86 1 4 4 0 0 1-1.07.72 2.84 2.84 0 0 1-1.3.27 3.89 3.89 0 0 1-.52-.05 3 3 0 0 1-.66-.18 3.36 3.36 0 0 1-.71-.39 2.57 2.57 0 0 1-.64-.67 7.25 7.25 0 0 1-1.74 1.24 3.87 3.87 0 0 1-1.76.41 3 3 0 0 1-1.39-.29 2 2 0 0 1-.76-.68 1.91 1.91 0 0 1-.33-.83 6.5 6.5 0 0 1-.08-.81 3.83 3.83 0 0 1 .08-.89 6.3 6.3 0 0 1 .32-1.13 6.54 6.54 0 0 1 .61-1.21 5 5 0 0 1 1-1.11A5.14 5.14 0 0 1 44.95 26zm.26 2.83a8.91 8.91 0 0 1 .25-1.4 1.44 1.44 0 0 0-.43-.34.82.82 0 0 0-.5-.11 2.08 2.08 0 0 0-.92.33 2.87 2.87 0 0 0-.72.67 4.29 4.29 0 0 0-.53.88 7.29 7.29 0 0 0-.35 1 6.43 6.43 0 0 0-.19.91 4.05 4.05 0 0 0 0 .73 1.67 1.67 0 0 0 .19.83 1 1 0 0 0 .96.54 2.6 2.6 0 0 0 .56-.06 2.33 2.33 0 0 0 .91-.45 6.76 6.76 0 0 0 .95-.87 6.28 6.28 0 0 1-.18-1.16 8.13 8.13 0 0 1 0-1.5zM51 19.55c-.23-.15-.5-.09-.8.16a4.67 4.67 0 0 0-1 1.17 16.31 16.31 0 0 0-1 1.89 24.29 24.29 0 0 0-.87 2.32 23.75 23.75 0 0 0-.65 2.44 13.2 13.2 0 0 0-.28 2.3l1.23-2.09 1.14-2.25 1-2.17c.33-.7.53-1.33.72-1.88a12.47 12.47 0 0 0 .42-1.33c.14-.36.16-.55.12-.58z"/><path d="M42.02 29.54l-1.12 1.79a8.94 8.94 0 0 1-1.07 1.45 4.4 4.4 0 0 1-1.24 1 3.59 3.59 0 0 1-1.63.35 1.79 1.79 0 0 1-.94-.23 2 2 0 0 1-.6-.59 2.49 2.49 0 0 1-.34-.76 3.91 3.91 0 0 1-.15-.76 7 7 0 0 1 0-.84l-.15.33a7.07 7.07 0 0 1-.37.68 6.64 6.64 0 0 1-.6.84 4.24 4.24 0 0 1-.81.77 3.51 3.51 0 0 1-1 .52 2.38 2.38 0 0 1-1.22 0 1.27 1.27 0 0 1-1-.67 2.84 2.84 0 0 1-.28-1.28 6.27 6.27 0 0 1 .19-1.56l.42-1.51c.15-.51.3-.85.43-1.15l.2-.47c0-.06.09-.12.23-.16a3.91 3.91 0 0 1 .46-.11 4.87 4.87 0 0 1 .55-.06 2.6 2.6 0 0 1 .5 0 .6.6 0 0 1 .3.13q.09.11 0 .27a4.1 4.1 0 0 0-.42.82l-.41 1.14-.34 1.23-.24 1.15a8.74 8.74 0 0 0-.09.88c0 .24 0 .37.09.4s.37 0 .68-.24a8 8 0 0 0 1-1l1.16-1.59 1.14-1.86a.76.76 0 0 1 .55-.32 2.75 2.75 0 0 1 .86 0 2.41 2.41 0 0 1 .75.19c.2.09.26.22.19.37l-.22.51c-.1.24-.18.51-.27.81s-.15.61-.21.93a3.35 3.35 0 0 0-.06.87 1.25 1.25 0 0 0 .21.64.66.66 0 0 0 .6.21 2.27 2.27 0 0 0 .58-.1 1.73 1.73 0 0 0 .65-.45 7.41 7.41 0 0 0 .9-1.06c.35-.48.78-1.14 1.29-2a.56.56 0 0 1 .38-.32.59.59 0 0 1 .4 0 .5.5 0 0 1 .24.32.6.6 0 0 1-.17.49z"/></g><path d="M27.19 39.81H11.14a2.39 2.39 0 0 1-2.38-2.38v-1a5.79 5.79 0 0 1 1.44-3.54l5.64-5.78 2.55-2.66 2.24-2.63h0a4.57 4.57 0 0 0 1-2.6 2.68 2.68 0 0 0-.78-2 2.6 2.6 0 0 0-2-.78c-1.25 0-2.88 1.57-3.41 2.18a2.84 2.84 0 0 1-3.47.57l-1.83-1.07a2.14 2.14 0 0 1-1-1.45 2.11 2.11 0 0 1 .43-1.73 17.25 17.25 0 0 1 3.31-3.27 11.16 11.16 0 0 1 6.27-1.65 10.21 10.21 0 0 1 6.72 2.43 8.29 8.29 0 0 1 2.93 6.68 9 9 0 0 1-1.17 4.41 29.75 29.75 0 0 1-2.91 3.79l-2.52 2.73-2.49 2.59a.75.75 0 0 0-.25.38 3.09 3.09 0 0 0 .43.05h7.38a2.39 2.39 0 0 1 2.38 2.38v1.92a2.39 2.39 0 0 1-2.46 2.43zm-8.38-24.37a3.68 3.68 0 0 1 2.74 1.1 3.74 3.74 0 0 1 1.08 2.72 5.6 5.6 0 0 1-1.16 3.22h0c-.72 1-2.27 2.67-2.33 2.74l-2.57 2.67-5.64 5.78a4.74 4.74 0 0 0-1.14 2.8v1a1.32 1.32 0 0 0 1.32 1.31h16.08a1.31 1.31 0 0 0 1.31-1.31v-1.92a1.32 1.32 0 0 0-1.31-1.32h-7.38c-1 0-1.3-.45-1.41-.71s-.21-.82.46-1.52l2.49-2.59 2.5-2.7a29.77 29.77 0 0 0 2.78-3.6 8 8 0 0 0 1-3.89 7.22 7.22 0 0 0-2.56-5.87 9.16 9.16 0 0 0-6-2.18 10.09 10.09 0 0 0-5.68 1.48 16.39 16.39 0 0 0-3.06 3 1.07 1.07 0 0 0-.23.88 1.09 1.09 0 0 0 .54.74l1.83 1.09a1.79 1.79 0 0 0 2.13-.35c.23-.32 2.26-2.62 4.21-2.62z"/><g fill="#79fc79"><path d="M42.23 8.52a1.15 1.15 0 1 1-2.3 0 1.15 1.15 0 0 1 1.963-.813 1.15 1.15 0 0 1 .337.813z"/><circle cx="5.1" cy="37.15" r="1.28"/><path d="M3.28 17.19a.62.62 0 1 1-1.24 0 .62.62 0 1 1 1.24 0zm34.86 23.73a1.24 1.24 0 1 1-1.24-1.24 1.24 1.24 0 0 1 1.24 1.24zm-.87-4.25a.54.54 0 0 1 1.07 0 .54.54 0 0 1-1.07 0zm16.75-21.95a1.68 1.68 0 1 1-.489-1.194 1.68 1.68 0 0 1 .489 1.194z"/></g><path d="M4.67 28.44a1.07 1.07 0 0 1-1.83.753 1.07 1.07 0 0 1 .77-1.823 1.07 1.07 0 0 1 1.06 1.07z"/><circle cx="24.66" cy="4.93" r="1.37"/><circle cx="47.59" cy="37.68" r=".75"/><path d="M18.68 45.48a1.55 1.55 0 0 1-2.65 1.092 1.55 1.55 0 0 1 1.11-2.642 1.54 1.54 0 0 1 1.54 1.55z"/><circle cx="39.17" cy="14.42" r=".48"/></svg>