<svg xmlns="http://www.w3.org/2000/svg" viewBox="0 0 51.13 49.23" xmlns:v="https://vecta.io/nano"><path d="M35.68 12.25l-2.48 1.56a2.59 2.59 0 0 0-3-.62l-4.77 2.3 2.24-2.11.63-.43a2.38 2.38 0 0 0 .72-.77q2.85-2.39 5.63-4.86c2.27-2-1-5.12-3.28-3.28l-6.15 5.29-.73.62-.22.15 3.5-3.36a2.08 2.08 0 0 0 .38-2.67l.38-.54c1.49-2.18-1.87-4.74-3.65-2.82L5 22.16a2.22 2.22 0 0 0-.64 1.8 24.86 24.86 0 0 0-3.93 4c-1.55 2 1.33 4.07 3.18 3.18l2.45-1.18a7.55 7.55 0 0 0-.49 2.18 2.34 2.34 0 0 0 3.49 2l2.79-1.72-.34.63a2.29 2.29 0 0 0 1.57 3.38l-6.48 5.8c-1.85 1.83.55 5.1 2.81 3.65l3.06-2-1.33 1.29c-1.86 1.8.59 5.16 2.81 3.65L25.1 41.3c.81-.38 1.59-.83 2.36-1.27a19.77 19.77 0 0 0 4.63-3.49 2.48 2.48 0 0 0-1.23-4l1.54-1.5a2.23 2.23 0 0 0 .18-3 2.34 2.34 0 0 0-1-4 27.07 27.07 0 0 0 3-4.83l3.87-3.31c2.02-1.73-.54-5.02-2.77-3.65z" fill="#79fc79"/><g fill="#2d2d2d"><path d="M42.75 24.81a2 2 0 0 1 .86.13l.59-1.72.73-1.77a18.31 18.31 0 0 1 .87-1.65 11.25 11.25 0 0 1 .95-1.37 4.46 4.46 0 0 1 1-.94 1.9 1.9 0 0 1 1.06-.34.9.9 0 0 1 .84.41 2.43 2.43 0 0 1 .26 1.22 6 6 0 0 1-.17 1.45 16.13 16.13 0 0 1-.53 1.88q-.34 1-.84 2.13l-1.09 2.21a23.94 23.94 0 0 1-1.29 2.12 19 19 0 0 1-1.47 1.87 2 2 0 0 0 .64 1 1.51 1.51 0 0 0 1.16.28 2 2 0 0 0 1-.37 4.64 4.64 0 0 0 .87-.8 8.53 8.53 0 0 0 .75-1l.59-1c.17-.29.31-.59.42-.82l.2-.41a.53.53 0 0 1 .33-.23.67.67 0 0 1 .4 0 .4.4 0 0 1 .25.24.52.52 0 0 1-.12.44 8.5 8.5 0 0 0-.42.78c-.16.33-.34.67-.55 1l-.68 1.09a5.83 5.83 0 0 1-.85 1 4.28 4.28 0 0 1-1 .7 2.75 2.75 0 0 1-1.28.26 3.44 3.44 0 0 1-.51 0 2.76 2.76 0 0 1-.65-.18 3.38 3.38 0 0 1-.69-.38 2.57 2.57 0 0 1-.64-.67 7.06 7.06 0 0 1-1.68 1.18 3.7 3.7 0 0 1-1.72.4 2.81 2.81 0 0 1-1.36-.29 2.15 2.15 0 0 1-.76-.66 2 2 0 0 1-.32-.82c0-.29-.07-.56-.08-.79a4.32 4.32 0 0 1 .08-.88 5.9 5.9 0 0 1 .32-1.11 6.26 6.26 0 0 1 .59-1.19 5.08 5.08 0 0 1 .94-1.09 5.23 5.23 0 0 1 1.31-.83 5.11 5.11 0 0 1 1.69-.48zm.28 2.75a10 10 0 0 1 .25-1.37 1.28 1.28 0 0 0-.42-.34.78.78 0 0 0-.49-.1 2.2 2.2 0 0 0-.91.32 2.92 2.92 0 0 0-.7.66 4.37 4.37 0 0 0-.52.86 7.59 7.59 0 0 0-.54 1.83 3.79 3.79 0 0 0 0 .72 1.78 1.78 0 0 0 .18.82 1 1 0 0 0 .42.41 1.18 1.18 0 0 0 .53.12 3.31 3.31 0 0 0 .55-.07 2.34 2.34 0 0 0 .89-.43 7.27 7.27 0 0 0 .94-.86 6.19 6.19 0 0 1-.18-1.14 7.84 7.84 0 0 1 0-1.39zm5.76-9.09c-.22-.15-.48-.09-.78.16a4.7 4.7 0 0 0-.94 1.15 14.92 14.92 0 0 0-1 1.85 23.48 23.48 0 0 0-.87 2.28q-.37 1.19-.63 2.4a12.78 12.78 0 0 0-.28 2.25l1.22-2c.4-.69.76-1.48 1.11-2.21l.94-2.14.72-1.84c.2-.54.32-1 .41-1.31s.14-.52.1-.55z"/><path d="M31.59 23.17a1.3 1.3 0 0 1 1.22.31 1.6 1.6 0 0 1 .32 1.27 3.76 3.76 0 0 1-.15.86 4 4 0 0 1-.3.68l.64-.2.58-.23a4.45 4.45 0 0 0 .46-.18 1.42 1.42 0 0 1 .28-.09.35.35 0 0 1 .32.16 2 2 0 0 1 .28.45 2.11 2.11 0 0 1 .17.5v.3a14.46 14.46 0 0 0-1.09 1.72 7.1 7.1 0 0 0-.52 1.24 2.42 2.42 0 0 0-.12.85 1.07 1.07 0 0 0 .16.52.67.67 0 0 0 .29.27.79.79 0 0 0 .3.07 1.58 1.58 0 0 0 .95-.31 5.54 5.54 0 0 0 1-.82 10.11 10.11 0 0 0 .93-1.11 13.11 13.11 0 0 0 .78-1.16 9.74 9.74 0 0 0 .56-1 4 4 0 0 0 .27-.57.34.34 0 0 1 .15-.21.31.31 0 0 1 .23 0 .4.4 0 0 1 .23.12.59.59 0 0 1 .16.28 1.51 1.51 0 0 1-.2.69 8.66 8.66 0 0 1-.67 1.23 14.65 14.65 0 0 1-1 1.46 10.47 10.47 0 0 1-1.28 1.37 6.58 6.58 0 0 1-1.42 1 2.38 2.38 0 0 1-1.46.24 1.84 1.84 0 0 1-1.19-.62 2.15 2.15 0 0 1-.5-1.25 3.83 3.83 0 0 1 .23-1.65 5.66 5.66 0 0 1 1.06-1.78.37.37 0 0 0 .05-.11.17.17 0 0 0 0-.12.15.15 0 0 0-.09-.06.36.36 0 0 0-.2.1 1.25 1.25 0 0 1-.36.16 2.55 2.55 0 0 1-.6.12 3.51 3.51 0 0 1-.72 0 1.56 1.56 0 0 1-.69-.25 1.67 1.67 0 0 1-.54-.6 2.49 2.49 0 0 1-.25-1.05 2.75 2.75 0 0 1 .08-.69 3 3 0 0 1 .32-.79 2.49 2.49 0 0 1 .57-.68 1.58 1.58 0 0 1 .76-.44zm-.67 3a.43.43 0 0 0 .3.25 3.65 3.65 0 0 0 .36-.64 3.52 3.52 0 0 0 .26-1c.05-.32 0-.52-.11-.62s-.3 0-.51.29a2.63 2.63 0 0 0-.32.58 1.58 1.58 0 0 0-.1.48 1.09 1.09 0 0 0 0 .37 1.72 1.72 0 0 0 .12.32z"/></g><path d="M18.09 40.08c-3.2 0-7.84-2.4-8-2.5a2.39 2.39 0 0 1-1-3.21l.87-1.69a2.35 2.35 0 0 1 1.39-1.16 2.31 2.31 0 0 1 1.8.2c0 0 3.31 1.84 5.23 1.84a4.49 4.49 0 0 0 2.79-.82 2.6 2.6 0 0 0 1-2.24 2.72 2.72 0 0 0-1.19-2.34 6 6 0 0 0-3.57-.92 8.49 8.49 0 0 0-1.81.27 1.89 1.89 0 0 1-2.46-1.88v-.92a6.31 6.31 0 0 1 1.33-3.6l3-3.52c.21-.25.23-.4.22-.43s-.14-.1-.47-.1h-5.08a2.38 2.38 0 0 1-2.38-2.38v-1.64a2.38 2.38 0 0 1 2.38-2.38H25.6a2.38 2.38 0 0 1 2.38 2.38v.63a6.18 6.18 0 0 1-1.35 3.59l-3.29 3.76a.74.74 0 0 0-.24.66.78.78 0 0 0 .54.46 9 9 0 0 1 3.7 2.41 8.58 8.58 0 0 1 2 5.57 9.1 9.1 0 0 1-3.18 7.33 12.08 12.08 0 0 1-8.07 2.63zm-6.12-7.59a1.08 1.08 0 0 0-.36 0 1.25 1.25 0 0 0-.76.63l-.87 1.69a1.33 1.33 0 0 0 .57 1.78c0 0 4.6 2.37 7.54 2.37a11 11 0 0 0 7.3-2.38 8 8 0 0 0 2.79-6.51 7.61 7.61 0 0 0-1.72-4.9 8.15 8.15 0 0 0-3.21-2.08 1.66 1.66 0 0 1-.77-2.82l3.29-3.76a5.14 5.14 0 0 0 1.09-2.89v-.63a1.32 1.32 0 0 0-1.32-1.32H12.08a1.32 1.32 0 0 0-1.32 1.32v1.64a1.32 1.32 0 0 0 1.32 1.31h5.08a1.3 1.3 0 0 1 1.06 2.29l-3 3.52a5.28 5.28 0 0 0-1.07 2.91v.92a.91.91 0 0 0 .31.74.88.88 0 0 0 .8.11 9.87 9.87 0 0 1 2.09-.3 7 7 0 0 1 4.2 1.13 3.76 3.76 0 0 1 1.62 3.19 3.64 3.64 0 0 1-1.43 3.09 5.53 5.53 0 0 1-3.43 1c-2.2 0-5.6-1.89-5.75-2a1.21 1.21 0 0 0-.59-.05z"/><g fill="#79fc79"><path d="M42.23 8.52a1.15 1.15 0 0 1-1.963.813 1.15 1.15 0 0 1 .813-1.963 1.14 1.14 0 0 1 1.15 1.15z"/><circle cx="5.1" cy="37.15" r="1.28"/><path d="M3.28 17.19a.61.61 0 0 1-.62.62.62.62 0 1 1 0-1.24.62.62 0 0 1 .62.62zm34.88 23.73a1.24 1.24 0 1 1-1.24-1.24 1.25 1.25 0 0 1 1.24 1.24zm-.89-4.25a.54.54 0 1 1 .54.53.54.54 0 0 1-.54-.53zm13.75-21.95a1.68 1.68 0 1 1-.489-1.194 1.68 1.68 0 0 1 .489 1.194z"/></g><path d="M4.67 28.44a1.06 1.06 0 0 1-2.12-.013 1.06 1.06 0 0 1 1.813-.743 1.06 1.06 0 0 1 .307.756z"/><circle cx="24.66" cy="4.93" r="1.37"/><circle cx="47.59" cy="37.68" r=".75"/><path d="M18.69 45.48a1.55 1.55 0 0 1-3.1 0 1.55 1.55 0 0 1 2.646-1.096 1.55 1.55 0 0 1 .454 1.096z"/><circle cx="39.17" cy="14.42" r=".48"/></svg>