<svg xmlns="http://www.w3.org/2000/svg" xmlns:xlink="http://www.w3.org/1999/xlink" id="Layer_1" x="0" y="0" version="1.1" viewBox="0 0 1081 601" xml:space="preserve" style="enable-background:new 0 0 1081 601"><style type="text/css">.st0{fill:#fe60a1}.st1{fill:#8089ff}.st2{fill:#84ce65}.st3{fill:#54ceff}.st4{fill:#6181ff}.st5{fill:#282e38}.st6{fill:#c9cdd2}.st7{fill:#92d275}</style><g id="_x2014_ÎÓÈ_x5F_1"><g><path d="M711.8,91.5c9.2,0,16.7-7.5,16.7-16.7s-7.5-16.7-16.7-16.7s-16.7,7.5-16.7,16.7 C695.2,84,702.7,91.5,711.8,91.5z M711.8,64.1c5.9,0,10.7,4.8,10.7,10.7s-4.8,10.7-10.7,10.7s-10.7-4.8-10.7-10.7 S705.9,64.1,711.8,64.1z" class="st0"/><path d="M74.5,108.3c9.2,0,16.7-7.5,16.7-16.7s-7.5-16.7-16.7-16.7s-16.7,7.5-16.7,16.7 C57.9,100.9,65.3,108.3,74.5,108.3z M74.5,81c5.9,0,10.7,4.8,10.7,10.7c0,5.9-4.8,10.7-10.7,10.7s-10.7-4.8-10.7-10.7 S68.6,81,74.5,81z" class="st0"/><path d="M303,146.1c9.2,0,16.7-7.5,16.7-16.7s-7.5-16.7-16.7-16.7s-16.7,7.5-16.7,16.7 C286.4,138.6,293.8,146.1,303,146.1z M303,118.7c5.9,0,10.7,4.8,10.7,10.7c0,5.9-4.8,10.7-10.7,10.7s-10.7-4.8-10.7-10.7 C292.3,123.5,297.1,118.7,303,118.7z" class="st1"/><path d="M243.4,347.4c9.2,0,16.7-7.5,16.7-16.7s-7.5-16.7-16.7-16.7s-16.7,7.5-16.7,16.7S234.2,347.4,243.4,347.4z M243.4,320c5.9,0,10.7,4.8,10.7,10.7c0,5.9-4.8,10.7-10.7,10.7s-10.7-4.8-10.7-10.7S237.5,320,243.4,320z" class="st2"/><path d="M809.8,542.3c9.2,0,16.7-7.5,16.7-16.7s-7.5-16.7-16.7-16.7s-16.7,7.5-16.7,16.7 C793.2,534.8,800.7,542.3,809.8,542.3z M809.8,514.9c5.9,0,10.7,4.8,10.7,10.7s-4.8,10.7-10.7,10.7s-10.7-4.8-10.7-10.7 S803.9,514.9,809.8,514.9z" class="st1"/><path d="M1060.5,548.3c9.2,0,16.7-7.5,16.7-16.7s-7.5-16.7-16.7-16.7s-16.7,7.5-16.7,16.7 C1043.9,540.8,1051.4,548.3,1060.5,548.3z M1060.5,520.9c5.9,0,10.7,4.8,10.7,10.7s-4.8,10.7-10.7,10.7s-10.7-4.8-10.7-10.7 S1054.6,520.9,1060.5,520.9z" class="st3"/><path d="M387.9,25.2l7.4-7.4c1.1-1.1,1.1-3,0-4.1s-3-1.1-4.1,0l-7.4,7.4l-7.4-7.4c-1.1-1.1-3-1.1-4.1,0s-1.1,3,0,4.1 l7.4,7.4l-7.4,7.4c-1.1,1.1-1.1,3,0,4.1s3,1.1,4.1,0l7.4-7.4l7.4,7.4c1.1,1.1,3,1.1,4.1,0s1.1-3,0-4.1L387.9,25.2z" class="st3"/><path d="M368.3,498.6l7.4-7.4c1.1-1.1,1.1-3,0-4.1s-3-1.1-4.1,0l-7.4,7.4l-7.4-7.4c-1.1-1.1-3-1.1-4.1,0s-1.1,3,0,4.1 l7.4,7.4l-7.4,7.4c-1.1,1.1-1.1,3,0,4.1s3,1.1,4.1,0l7.4-7.4l7.4,7.4c1.1,1.1,3,1.1,4.1,0s1.1-3,0-4.1L368.3,498.6z" class="st3"/><path d="M16.4,270.2l7.4-7.4c1.1-1.1,1.1-3,0-4.1s-3-1.1-4.1,0l-7.4,7.4l-7.4-7.4c-1.1-1.1-3-1.1-4.1,0s-1.1,3,0,4.1 l7.4,7.4l-7.4,7.4c-1.1,1.1-1.1,3,0,4.1s3,1.1,4.1,0l7.4-7.4l7.4,7.4c1.1,1.1,3,1.1,4.1,0s1.1-3,0-4.1L16.4,270.2z" class="st3"/><path d="M824.7,351.1l7.4-7.4c1.1-1.1,1.1-3,0-4.1s-3-1.1-4.1,0l-7.4,7.4l-7.4-7.4c-1.1-1.1-3-1.1-4.1,0s-1.1,3,0,4.1 l7.4,7.4l-7.4,7.4c-1.1,1.1-1.1,3,0,4.1s3,1.1,4.1,0l7.4-7.4l7.4,7.4c1.1,1.1,3,1.1,4.1,0s1.1-3,0-4.1L824.7,351.1z" class="st2"/><path d="M146.3,573.6H138v-8.3c0-1.3-1-2.3-2.3-2.3s-2.3,1-2.3,2.3v8.3h-8.3c-1.3,0-2.3,1-2.3,2.3s1,2.3,2.3,2.3h8.3 v8.3c0,1.3,1,2.3,2.3,2.3s2.3-1,2.3-2.3v-8.3h8.3c1.3,0,2.3-1,2.3-2.3S147.6,573.6,146.3,573.6z" class="st1"/><path d="M1005.6,76.3h-8.3V68c0-1.3-1-2.3-2.3-2.3s-2.3,1-2.3,2.3v8.3h-8.3c-1.3,0-2.3,1-2.3,2.3s1,2.3,2.3,2.3h8.3 v8.3c0,1.3,1,2.3,2.3,2.3s2.3-1,2.3-2.3v-8.3h8.3c1.3,0,2.3-1,2.3-2.3S1006.8,76.3,1005.6,76.3z" class="st1"/><path d="M95.5,251.6c-3.5,0-6.3,2.8-6.3,6.3c0,3.5,2.8,6.3,6.3,6.3s6.3-2.8,6.3-6.3S99,251.6,95.5,251.6z" class="st1"/><path d="M1032,281.8c-3.5,0-6.3,2.8-6.3,6.3s2.8,6.3,6.3,6.3s6.3-2.8,6.3-6.3S1035.5,281.8,1032,281.8z" class="st0"/><path d="M741.6,139.3c-3.5,0-6.3,2.8-6.3,6.3s2.8,6.3,6.3,6.3s6.3-2.8,6.3-6.3S745,139.3,741.6,139.3z" class="st2"/><path d="M890.7,43.5c3.3,0,6-2.7,6-6s-2.7-6-6-6s-6,2.7-6,6C884.8,40.8,887.4,43.5,890.7,43.5z" class="st3"/><path d="M164.3,537.6c3.3,0,6-2.7,6-6s-2.7-6-6-6s-6,2.7-6,6C158.4,535,161,537.6,164.3,537.6z" class="st0"/></g></g><g><path d="M825.9,452.8H668.2c-3.2,0-5.7-2.6-5.7-5.7v-44.1c0-6.9,1.9-13.7,5.5-19.5l131.5-216.6 c1.1-1.7,2.9-2.7,4.9-2.7h98.6c3.2,0,5.7,2.6,5.7,5.7v216h37.9c3.2,0,5.7,2.6,5.7,5.7V447c0,3.2-2.6,5.7-5.7,5.7h-37.9v85.1 c0,3.2-2.6,5.7-5.7,5.7h-70.4c-3.2,0-5.7-2.6-5.7-5.7v-84.3C826.8,453.1,826.4,452.8,825.9,452.8z M762.7,385.8h64.1v-61.6 c0-24.5,2.4-61,3.6-84.9L754.6,372C751.1,378.1,755.5,385.8,762.7,385.8z" class="st4"/><g><path d="M948.4,378h-25.6c-3.7,0-6.8-3-6.8-6.8V265.8c0-3.9-3.2-7.1-7.1-7.1l0,0c-3.9,0-7.1,3.2-7.1,7.1V378v7.3 c0,3.7,3,6.8,6.8,6.8h7.3h30.4v40.1H916h-7.3c-3.7,0-6.8,3-6.8,6.8v7.3v78.6h-55.3v-78.6v-7.3c0-3.7-3-6.8-6.8-6.8h-7.3H678.9 v-34.9c0-5.6,1.5-11.1,4.4-15.9l130.8-215.5h87.7v73.9c0,3.9,3.2,7.1,7.1,7.1l0,0c3.9,0,7.1-3.2,7.1-7.1v-75.8 c0-6.8-5.5-12.3-12.3-12.3h-90.5c-4.2,0-8.2,2.2-10.5,5.9L671.2,374c-4.2,7-6.5,15.1-6.5,23.2V434c0,6.8,5.5,12.3,12.3,12.3h148.7 c3.7,0,6.8,3,6.8,6.8v73.8c0,6.8,5.5,12.3,12.3,12.3h59.1c6.8,0,12.3-5.5,12.3-12.3V453c0-3.7,3-6.8,6.8-6.8h25.6 c6.8,0,12.3-5.5,12.3-12.3v-43.8C960.6,383.4,955.1,378,948.4,378z" class="st5"/><path d="M843.6,238.9c-3.8-4-9.1-6.3-14.6-6.3c-7.1,0-13.6,3.8-17.2,10.1l-68.4,119.6c-4.4,7.8-3.3,17.8,3.5,24.3 c3.8,3.6,8.9,5.5,14.2,5.5h11.3c3.9,0,7.1-3.2,7.1-7.1l0,0c0-3.9-3.2-7.1-7.1-7.1h-11.7c-4.4,0-7.2-4.8-5-8.6l68.4-119.6 c1.1-2,3.1-2.9,4.9-2.9c3.1,0,6.1,2.4,5.8,6.1c-1.1,21-2.4,44.6-2.4,62.3v57.1c0,3.2-2.6,5.8-5.8,5.8h-26.9 c-3.9,0-7.1,3.2-7.1,7.1l0,0c0,3.9,3.2,7.1,7.1,7.1h26.9c11,0,19.9-8.9,19.9-19.9v-57.1c0-17.1,1.2-40.8,2.4-61.5 C849.2,248.1,847.4,242.9,843.6,238.9z" class="st5"/></g></g><g><path d="M275.3,452.8H117.6c-3.2,0-5.7-2.6-5.7-5.7v-44.1c0-6.9,1.9-13.7,5.5-19.5l131.5-216.6 c1.1-1.7,2.9-2.7,4.9-2.7h98.6c3.2,0,5.7,2.6,5.7,5.7v216h37.9c3.2,0,5.7,2.6,5.7,5.7V447c0,3.2-2.6,5.7-5.7,5.7h-37.9v85.1 c0,3.2-2.6,5.7-5.7,5.7h-70.5c-3.2,0-5.7-2.6-5.7-5.7v-84.3C276.2,453.1,275.8,452.8,275.3,452.8z M212.1,385.8h64.1v-61.6 c0-24.5,2.4-61,3.6-84.9L204,372C200.5,378.1,205,385.8,212.1,385.8z" class="st4"/><g><path d="M397.8,378h-25.6c-3.7,0-6.8-3-6.8-6.8V265.8c0-3.9-3.2-7.1-7.1-7.1l0,0c-3.9,0-7.1,3.2-7.1,7.1V378v7.3 c0,3.7,3,6.8,6.8,6.8h7.3h30.4v40.1h-30.4h-7.3c-3.7,0-6.8,3-6.8,6.8v7.3v78.6H296v-78.6v-7.3c0-3.7-3-6.8-6.8-6.8h-7.3H128.3 v-34.9c0-5.6,1.5-11.1,4.4-15.9l130.8-215.5h87.7v73.9c0,3.9,3.2,7.1,7.1,7.1l0,0c3.9,0,7.1-3.2,7.1-7.1v-75.8 c0-6.8-5.5-12.3-12.3-12.3h-90.5c-4.2,0-8.2,2.2-10.5,5.9L120.6,374c-4.2,7-6.5,15.1-6.5,23.2V434c0,6.8,5.5,12.3,12.3,12.3h148.7 c3.7,0,6.8,3,6.8,6.8v73.8c0,6.8,5.5,12.3,12.3,12.3h59.1c6.8,0,12.3-5.5,12.3-12.3V453c0-3.7,3-6.8,6.8-6.8h25.6 c6.8,0,12.3-5.5,12.3-12.3v-43.8C410,383.4,404.5,378,397.8,378z" class="st5"/><path d="M293,238.9c-3.8-4-9.1-6.3-14.6-6.3c-7.1,0-13.6,3.8-17.2,10.1l-68.4,119.6c-4.4,7.8-3.3,17.8,3.5,24.3 c3.8,3.6,8.9,5.5,14.2,5.5h11.3c3.9,0,7.1-3.2,7.1-7.1l0,0c0-3.9-3.2-7.1-7.1-7.1h-11.7c-4.4,0-7.2-4.8-5-8.6l68.4-119.6 c1.1-2,3.1-2.9,4.9-2.9c3.1,0,6.1,2.4,5.8,6.1c-1.1,21-2.4,44.6-2.4,62.3v57.1c0,3.2-2.6,5.8-5.8,5.8h-26.9 c-3.9,0-7.1,3.2-7.1,7.1l0,0c0,3.9,3.2,7.1,7.1,7.1H276c11,0,19.9-8.9,19.9-19.9v-57.1c0-17.1,1.2-40.8,2.4-61.5 C298.6,248.1,296.8,242.9,293,238.9z" class="st5"/></g></g><g><path d="M704.5,379.8V248.6c0-27-21.9-48.9-48.9-48.9H431c-27,0-48.9,21.9-48.9,48.9v131.2c0,27,21.9,48.9,48.9,48.9h3 v38.8h-3c-27,0-48.9,21.9-48.9,48.9v38.4h322.4v-38.4c0-27-21.9-48.9-48.9-48.9v-38.8C682.7,428.7,704.5,406.8,704.5,379.8z" class="st6"/><g><ellipse cx="543.3" cy="72.5" class="st7" rx="22.8" ry="22.8" transform="matrix(0.1979 -0.9802 0.9802 0.1979 364.7243 590.7235)"/><path d="M593.4,199.8c0-27.6-22.4-50-50-50s-50,22.4-50,50" class="st7"/><path d="M586,355.3h-85.2c-17.6,0-31.8,14.3-31.8,31.8v41.6h148.9v-41.6C617.8,369.6,603.5,355.3,586,355.3z" class="st7"/></g><g><circle cx="636" cy="295.3" r="32.2" class="st3"/><path d="M482.9,295.3c0,3.8-0.6,7.5-1.9,10.9c-4.4,12.4-16.3,21.4-30.3,21.4c-14,0-25.9-8.9-30.3-21.4 c-1.2-3.4-1.9-7.1-1.9-10.9c0-17.8,14.5-32.2,32.2-32.2C468.5,263.1,482.9,277.5,482.9,295.3z" class="st3"/></g><g><path d="M595.2,295.1c0,22.4,18.2,40.6,40.6,40.6s40.6-18.2,40.6-40.6c0-22.4-18.2-40.6-40.6-40.6 C613.4,254.5,595.2,272.7,595.2,295.1z M659.7,295.1c0,13.1-10.8,23.9-23.9,23.9c-13.1,0-23.9-10.8-23.9-23.9 c0-13.1,10.8-23.9,23.9-23.9S659.7,281.9,659.7,295.1z" class="st5"/><path d="M488.9,497.3h-5.8c-4.6,0-8.3,3.7-8.3,8.3s3.7,8.3,8.3,8.3h5.8c4.6,0,8.3-3.7,8.3-8.3 S493.5,497.3,488.9,497.3z" class="st5"/><path d="M438.9,514h22c4.6,0,8.3-3.7,8.3-8.3c0-4.6-3.7-8.3-8.3-8.3h-22c-4.6,0-8.3,3.7-8.3,8.3 C430.6,510.3,434.3,514,438.9,514z" class="st5"/><path d="M488.9,524h-50c-4.6,0-8.3,3.7-8.3,8.3c0,4.6,3.7,8.3,8.3,8.3h50c4.6,0,8.3-3.7,8.3-8.3 C497.2,527.7,493.5,524,488.9,524z" class="st5"/><path d="M601.7,540.7h5.8c4.6,0,8.3-3.7,8.3-8.3c0-4.6-3.7-8.3-8.3-8.3h-5.8c-4.6,0-8.3,3.7-8.3,8.3 C593.4,537,597.1,540.7,601.7,540.7z" class="st5"/><path d="M651.7,524h-22c-4.6,0-8.3,3.7-8.3,8.3c0,4.6,3.7,8.3,8.3,8.3h22c4.6,0,8.3-3.7,8.3-8.3 C660,527.7,656.3,524,651.7,524z" class="st5"/><path d="M601.7,514h50c4.6,0,8.3-3.7,8.3-8.3c0-4.6-3.7-8.3-8.3-8.3h-50c-4.6,0-8.3,3.7-8.3,8.3 C593.4,510.3,597.1,514,601.7,514z" class="st5"/><path d="M450.9,336c-3.7,0-7.3-0.5-10.9-1.4c-4.6-1.2-7.3-6-6.1-10.7c1.2-4.6,6-7.3,10.7-6.1c2,0.5,4.1,0.8,6.3,0.8 c10,0,18.9-6.3,22.2-15.6c0.9-2.6,1.4-5.2,1.4-7.9c0-13-10.6-23.6-23.6-23.6s-23.6,10.6-23.6,23.6c0,2.7,0.4,5.4,1.3,7.9 c1.6,4.5-0.7,9.4-5.2,11.1c-4.5,1.6-9.4-0.7-11.1-5.2c-1.6-4.4-2.4-9-2.4-13.8c0-22.6,18.4-40.9,40.9-40.9s40.9,18.4,40.9,40.9 c0,4.8-0.8,9.4-2.4,13.8C483.6,325.1,468.2,336,450.9,336z" class="st5"/><path d="M712.8,379.6v-89.2c0-4.4-3.4-8.3-7.8-8.6c-4.9-0.4-8.9,3.5-8.9,8.3v89.5c0,22.4-18.2,40.6-40.6,40.6h-29.5 V387c0-22.2-18-40.2-40.2-40.2h-85.1c-22.2,0-40.2,18-40.2,40.2v33.2H431c-22.4,0-40.6-18.2-40.6-40.6v-3.7c0-4.6-3.7-8.4-8.4-8.4 l0,0c-4.6,0-8.4,3.7-8.4,8.4v3.7c0,28.8,21.3,52.6,48.9,56.6v23.4c-27.6,4.1-48.9,27.9-48.9,56.6v38.1c0,4.4,3.4,8.3,7.8,8.6 c4.9,0.4,8.9-3.5,8.9-8.3v-38.4c0-22.4,18.2-40.6,40.6-40.6h165.3c4.4,0,8.3-3.4,8.6-7.8c0.4-4.9-3.5-8.9-8.3-8.9H439.3v-22.1 h69.8c4.6,0,8.3-3.7,8.3-8.3l0,0c0-4.6-3.7-8.3-8.3-8.3H509v-56.7H535v56.7h-0.3c-4.6,0-8.3,3.7-8.3,8.3l0,0 c0,4.6,3.7,8.3,8.3,8.3h112.6V459h-22.5c-4.4,0-8.3,3.4-8.6,7.8c-0.4,4.9,3.5,8.9,8.3,8.9h31.1c22.4,0,40.6,18.2,40.6,40.6v38 c0,4.4,3.4,8.3,7.8,8.6c4.9,0.4,8.9-3.5,8.9-8.3v-38.4c0-28.8-21.3-52.6-48.9-56.6v-23.4C691.6,432.1,712.8,408.3,712.8,379.6z M492.4,420.1h-15.2V387c0-10.1,6.4-18.6,15.2-22V420.1z M609.4,420.1h-15.2v-22.2c0-4.6-3.7-8.3-8.3-8.3c-4.6,0-8.3,3.7-8.3,8.3 v22.2h-25.9v-56.7h25.9v12.2c0,4.6,3.7,8.3,8.3,8.3c4.6,0,8.3-3.7,8.3-8.3v-10.7c8.8,3.4,15.2,11.9,15.2,22V420.1z" class="st5"/><path d="M655.7,191.2H502.5c3.9-19,20.7-33.3,40.8-33.3c15,0,28.9,8.1,36.3,21.3c2.3,4,7.3,5.5,11.4,3.2 c4-2.3,5.5-7.3,3.2-11.4c-9-15.9-24.8-26.6-42.5-29.1v-39.4c14.1-3.9,24.2-17.5,22.8-33.1c-1.4-15-13.6-26.9-28.6-28.1 c-4.6-0.4-9.1,0.3-13.1,1.8c-5.8,2.1-7.3,9.7-2.6,13.9l0.3,0.3c2.3,2,5.5,2.6,8.4,1.5c2-0.7,4.2-1,6.5-0.7 c6.4,0.8,11.7,6,12.6,12.4c1.1,9.4-6.7,17.3-16,16.5c-6.4-0.6-11.6-5.5-12.9-11.7c-0.2-0.9-0.3-1.8-0.3-2.6c0-3.3-2.2-6.2-5.2-7.3 l-0.4-0.2c-5.2-1.9-10.9,1.8-10.9,7.3v0.1c0,14.3,9.7,26.4,22.9,30.1v39.3c-25.5,3.7-45.8,23.9-49.4,49.4H431 c-31.6,0-57.3,25.6-57.3,57.3V347c0,4.4,3.4,8.3,7.8,8.6c4.9,0.4,8.9-3.5,8.9-8.3v-99c0-22.4,18.2-40.6,40.6-40.6h224.6 c22.4,0,40.6,18.2,40.6,40.6v13.9c0,4.8,4.1,8.6,8.9,8.3c4.4-0.3,7.8-4.1,7.8-8.6v-13.6C712.8,216.8,687.3,191.2,655.7,191.2z" class="st5"/></g></g></svg>