<svg id="OBJECTS" xmlns="http://www.w3.org/2000/svg" xmlns:xlink="http://www.w3.org/1999/xlink" viewBox="0 0 457.15 332"><defs><style>.cls-1{fill:url(#linear-gradient);}.cls-2,.cls-5,.cls-6{fill:#f7f0c2;}.cls-2,.cls-5,.cls-6,.cls-7{stroke-miterlimit:10;}.cls-2,.cls-6{stroke-width:5px;}.cls-2{stroke:url(#linear-gradient-2);}.cls-3{fill:#81e1ed;}.cls-4{fill-rule:evenodd;fill:url(#linear-gradient-3);}.cls-5{stroke-width:7px;stroke:url(#linear-gradient-4);}.cls-6{stroke:url(#linear-gradient-5);}.cls-7{fill:#062465;stroke:#1d9dcd;stroke-width:2px;}</style><linearGradient id="linear-gradient" x1="380.27" y1="128.25" x2="380.27" y2="401.25" gradientUnits="userSpaceOnUse"><stop offset="0.21" stop-color="#1d9dcd"/><stop offset="0.43" stop-color="#1678ad"/><stop offset="0.91" stop-color="#05195b"/><stop offset="1" stop-color="#01064b"/></linearGradient><linearGradient id="linear-gradient-2" x1="459.46" y1="270.75" x2="611.11" y2="270.75" gradientUnits="userSpaceOnUse"><stop offset="0" stop-color="#1d9dcd"/><stop offset="0.15" stop-color="#1678ad"/><stop offset="0.49" stop-color="#05195b"/><stop offset="0.56" stop-color="#01064b"/><stop offset="1" stop-color="#1d9dcd"/></linearGradient><linearGradient id="linear-gradient-3" x1="382.95" y1="262.66" x2="382.95" y2="372" gradientUnits="userSpaceOnUse"><stop offset="0" stop-color="#f5d29b"/><stop offset="0.3" stop-color="#f7f0c2"/><stop offset="0.41" stop-color="#daeccc"/><stop offset="0.59" stop-color="#b0e7db"/><stop offset="0.76" stop-color="#91e3e6"/><stop offset="0.9" stop-color="#7fe1ed"/><stop offset="1" stop-color="#78e0ef"/></linearGradient><linearGradient id="linear-gradient-4" x1="273.67" y1="154.52" x2="499.35" y2="154.52" gradientUnits="userSpaceOnUse"><stop offset="0" stop-color="#1d9dcd"/><stop offset="0.16" stop-color="#1678ad"/><stop offset="0.51" stop-color="#05195b"/><stop offset="0.58" stop-color="#01064b"/><stop offset="1" stop-color="#1d9dcd"/></linearGradient><linearGradient id="linear-gradient-5" x1="316.63" y1="357.08" x2="206.97" y2="167.14" gradientUnits="userSpaceOnUse"><stop offset="0" stop-color="#1d9dcd"/><stop offset="0.08" stop-color="#1c98c8"/><stop offset="0.17" stop-color="#1989bb"/><stop offset="0.27" stop-color="#1570a6"/><stop offset="0.38" stop-color="#0e4d88"/><stop offset="0.5" stop-color="#062162"/><stop offset="0.56" stop-color="#01064b"/><stop offset="0.56" stop-color="#01084c"/><stop offset="0.67" stop-color="#0b3d7a"/><stop offset="0.77" stop-color="#13669e"/><stop offset="0.86" stop-color="#1884b8"/><stop offset="0.94" stop-color="#1c96c7"/><stop offset="1" stop-color="#1d9dcd"/></linearGradient></defs><title>Logo</title><g id="Main_Logo" data-name="Main Logo"><path id="Back" class="cls-1" d="M407.09,398.38a111.17,111.17,0,0,0,17.76-4.06c56.2-18,96.73-69.23,96.73-129.57,0-75.39-63.27-136.5-141.31-136.5S239,189.36,239,264.75s63.27,136.5,141.31,136.5h.1a109.08,109.08,0,0,0,16-1.28Z" transform="translate(-153.96 -69.25)"/><path id="C" class="cls-2" d="M594.68,222.35l13.51-34.52a5.19,5.19,0,0,0-4.83-7.08H504.53c-24.62,0-42.57,19.95-42.57,44.56v92.88c0,24.61,18,42.56,42.57,42.56h98.89c3.64,0,6.15-1.65,4.84-5l-13.61-35.57a6.86,6.86,0,0,0-6.39-4.39H500.57a4.6,4.6,0,0,1-4.61-4.6V230.4a4.6,4.6,0,0,1,4.65-4.6l87.63.9A6.83,6.83,0,0,0,594.68,222.35Z" transform="translate(-153.96 -69.25)"/><g id="O"><path class="cls-3" d="M348.13,343.14c-.12.28-.56.36-1,.17s-.64-.56-.51-.84.56-.37,1-.18.64.57.5.85Zm-.69-.51" transform="translate(-153.96 -69.25)"/><path class="cls-3" d="M350.4,345.67c-.27.25-.79.13-1.15-.26a.86.86,0,0,1-.16-1.16c.28-.25.78-.13,1.15.26s.44.91.16,1.16Zm-.54-.57" transform="translate(-153.96 -69.25)"/><path class="cls-3" d="M352.61,348.9c-.34.24-.91,0-1.25-.48s-.35-1.1,0-1.34.91,0,1.26.47.34,1.11,0,1.35Zm0,0" transform="translate(-153.96 -69.25)"/><path class="cls-3" d="M355.64,352c-.31.34-1,.25-1.44-.21s-.63-1.1-.32-1.44,1-.24,1.45.22.63,1.09.31,1.43Zm0,0" transform="translate(-153.96 -69.25)"/><path class="cls-3" d="M359.81,353.83c-.13.44-.76.64-1.4.45s-1.05-.7-.92-1.15.77-.65,1.41-.45,1.05.7.91,1.15Zm0,0" transform="translate(-153.96 -69.25)"/><path class="cls-3" d="M364.4,354.17c0,.46-.52.84-1.19.85s-1.21-.36-1.22-.81.53-.85,1.2-.86,1.21.36,1.21.82Zm0,0" transform="translate(-153.96 -69.25)"/><path class="cls-3" d="M368.67,353.44c.08.45-.38.91-1,1s-1.26-.16-1.34-.61.39-.92,1-1,1.26.15,1.34.61Zm0,0" transform="translate(-153.96 -69.25)"/><path id="_Path_" data-name="&lt;Path&gt;" class="cls-4" d="M383,262.66A56.06,56.06,0,0,0,365.23,371.9c2.8.52,3.83-1.21,3.83-2.69s-.05-5.76-.07-10.44c-15.6,3.39-18.89-6.61-18.89-6.61-2.55-6.48-6.22-8.21-6.22-8.21-5.09-3.48.38-3.4.38-3.4,5.63.39,8.59,5.77,8.59,5.77,5,8.57,13.12,6.1,16.32,4.66a11.93,11.93,0,0,1,3.55-7.49c-12.45-1.42-25.54-6.23-25.54-27.71a21.65,21.65,0,0,1,5.78-15c-.58-1.41-2.5-7.12.54-14.84,0,0,4.71-1.5,15.42,5.75a53.09,53.09,0,0,1,28.08,0c10.7-7.25,15.4-5.75,15.4-5.75,3.05,7.72,1.13,13.43.55,14.84a21.65,21.65,0,0,1,5.77,15c0,21.53-13.12,26.27-25.6,27.66,2,1.74,3.8,5.15,3.8,10.38,0,7.5-.06,13.54-.06,15.39,0,1.49,1,3.24,3.85,2.69A56.06,56.06,0,0,0,383,262.66Z" transform="translate(-153.96 -69.25)"/></g><path id="W" class="cls-5" d="M277.71,80.63l73.22,153.76a3.3,3.3,0,0,0,6,0L387,168.75l31,65.64a3.29,3.29,0,0,0,6,0l71.41-153.8a5.51,5.51,0,0,0-5-7.83H462.48a5.54,5.54,0,0,0-5,3.19L421,154.75l-32.08-67a2.1,2.1,0,0,0-3.79,0l-31.13,67L317.44,75.94a5.51,5.51,0,0,0-5-3.19H282.69A5.51,5.51,0,0,0,277.71,80.63Z" transform="translate(-153.96 -69.25)"/><path id="J" class="cls-6" d="M248,321.56c-3,5.54-5.54,11.53-5.54,18.3a33,33,0,1,0,49.47-28.61l.36-94.9A33,33,0,1,0,257,217.86l.46,63.39a79.88,79.88,0,0,0-28-5c-17,0-23.17-28.9-23.17-28.9,8.57-6,16.17-17.87,16.17-29.1A33,33,0,1,0,173,246.86s-4.54,60.39,64.46,67.39C237.46,314.25,250.53,316.86,248,321.56Z" transform="translate(-153.96 -69.25)"/><g id="J_o"><circle id="J_o-2" data-name="J_o" class="cls-7" cx="119.5" cy="269" r="16"/><circle id="J_o-3" data-name="J_o" class="cls-7" cx="119.5" cy="121" r="16"/><circle id="J_o-4" data-name="J_o" class="cls-7" cx="34.5" cy="151" r="16"/></g></g></svg>