<svg id="OBJECTS" xmlns="http://www.w3.org/2000/svg" xmlns:xlink="http://www.w3.org/1999/xlink" viewBox="0 0 457.15 332"><defs><style>.cls-1{fill:url(#linear-gradient);}.cls-2,.cls-4,.cls-5{fill:#f7f0c2;}.cls-2,.cls-4,.cls-5,.cls-6{stroke-miterlimit:10;}.cls-2,.cls-5{stroke-width:5px;}.cls-2{stroke:url(#linear-gradient-2);}.cls-3{fill:url(#linear-gradient-3);}.cls-4{stroke-width:7px;stroke:url(#linear-gradient-4);}.cls-5{stroke:url(#linear-gradient-5);}.cls-6{fill:#1d4cb0;stroke:#1d9dcd;stroke-width:2px;}</style><linearGradient id="linear-gradient" x1="618.19" y1="245.28" x2="617.42" y2="518.73" gradientUnits="userSpaceOnUse"><stop offset="0.21" stop-color="#1d9dcd"/><stop offset="0.59" stop-color="#1d78c0"/><stop offset="1" stop-color="#1d4cb0"/></linearGradient><linearGradient id="linear-gradient-2" x1="697" y1="387.5" x2="848.65" y2="387.5" gradientUnits="userSpaceOnUse"><stop offset="0" stop-color="#1d9dcd"/><stop offset="0.27" stop-color="#1d78c0"/><stop offset="0.56" stop-color="#1d4cb0"/><stop offset="1" stop-color="#1d9dcd"/></linearGradient><linearGradient id="linear-gradient-3" x1="618" y1="380.5" x2="618" y2="486.97" gradientUnits="userSpaceOnUse"><stop offset="0" stop-color="#f7f0c2"/><stop offset="0.11" stop-color="#f2eec2"/><stop offset="0.24" stop-color="#e2e7c1"/><stop offset="0.38" stop-color="#c9dcbf"/><stop offset="0.54" stop-color="#a6cdbc"/><stop offset="0.7" stop-color="#79b9b9"/><stop offset="0.87" stop-color="#43a1b5"/><stop offset="1" stop-color="#128cb2"/></linearGradient><linearGradient id="linear-gradient-4" x1="624.07" y1="185.71" x2="623.59" y2="356.61" gradientUnits="userSpaceOnUse"><stop offset="0" stop-color="#1d9dcd"/><stop offset="0.28" stop-color="#1d78c0"/><stop offset="0.58" stop-color="#1d4cb0"/><stop offset="1" stop-color="#1d9dcd"/></linearGradient><linearGradient id="linear-gradient-5" x1="421.25" y1="290.55" x2="575.25" y2="444.56" xlink:href="#linear-gradient-2"/></defs><title>jwoc_logo</title><g id="Svg_Logo" data-name="Svg Logo"><path id="Back" class="cls-1" d="M644.63,515.13a111.42,111.42,0,0,0,17.76-4.06c56.19-18,96.72-69.23,96.72-129.57,0-75.39-63.26-136.5-141.3-136.5S476.5,306.11,476.5,381.5,539.77,518,617.81,518h.09A109.11,109.11,0,0,0,634,516.72Z" transform="translate(-391.5 -186)"/><path id="C" class="cls-2" d="M832.22,339.1l13.51-34.52a5.19,5.19,0,0,0-4.83-7.08H742.06c-24.61,0-42.56,19.95-42.56,44.56v92.88c0,24.61,18,42.56,42.56,42.56H841c3.63,0,6.14-1.65,4.84-5l-13.62-35.57a6.84,6.84,0,0,0-6.38-4.39H738.1a4.6,4.6,0,0,1-4.6-4.6V347.15a4.6,4.6,0,0,1,4.65-4.6l87.63.9A6.84,6.84,0,0,0,832.22,339.1Z" transform="translate(-391.5 -186)"/><path id="O" class="cls-3" d="M600.17,486.52c-23.28-6.45-38.72-30.76-36.45-56.55,2.5-28.44,27.09-50.15,55.63-49.45a54.51,54.51,0,0,1,16.17,106.1s-5,1.88-5-3.12,2.9-19.52-2.72-24.75a.17.17,0,0,1,.09-.29c3.87-.43,36.52-5.18,18.63-41a28.57,28.57,0,0,0,0-14,25.24,25.24,0,0,0-15,6,51.26,51.26,0,0,0-27,0s-8-6-14-6c0,0-4,5-1,14,0,0-19,34.9,17.84,41a.13.13,0,0,1,.11.17c-.32.94-2.14,6.23-3,7.86-1,2-11.48,2-13.69-2.15a18.38,18.38,0,0,0-1.59-2.63c-2.22-2.84-6.9-7.77-10.57-4.37a.17.17,0,0,0,0,.27c1.09.88,7.53,6.19,8.67,10.61a4.63,4.63,0,0,0,1.77,2.58,17.68,17.68,0,0,0,14.65,2.9.59.59,0,0,1,.75.57V484.5S603.85,487.54,600.17,486.52Z" transform="translate(-391.5 -186)"/><path id="W" class="cls-4" d="M515.25,197.38l73.22,153.76a3.29,3.29,0,0,0,6,0l30.07-65.6,31,65.64a3.29,3.29,0,0,0,6,0l71.4-153.8a5.51,5.51,0,0,0-5-7.83H700a5.51,5.51,0,0,0-5,3.19L658.5,271.5l-32.08-67a2.1,2.1,0,0,0-3.79,0l-31.13,67L555,192.69a5.51,5.51,0,0,0-5-3.19H520.23A5.51,5.51,0,0,0,515.25,197.38Z" transform="translate(-391.5 -186)"/><path id="J" class="cls-5" d="M485.53,438.31c-3,5.54-5.53,11.53-5.53,18.3A33,33,0,1,0,529.47,428l.36-94.9a33,33,0,1,0-35.3,1.51L495,398a79.88,79.88,0,0,0-28-5c-17,0-23.17-28.9-23.17-28.9,8.57-6,16.17-17.87,16.17-29.1a33,33,0,1,0-49.47,28.61S406,424,475,431C475,431,488.07,433.61,485.53,438.31Z" transform="translate(-391.5 -186)"/><g id="J_o"><circle id="J_o-2" data-name="J_o" class="cls-6" cx="119.5" cy="269" r="16"/><circle id="J_o-3" data-name="J_o" class="cls-6" cx="119.5" cy="121" r="16"/><circle id="J_o-4" data-name="J_o" class="cls-6" cx="34.5" cy="151" r="16"/></g></g></svg>