<svg id="ICON" data-name="ICON" xmlns="http://www.w3.org/2000/svg" xmlns:xlink="http://www.w3.org/1999/xlink"
    viewBox="0 0 263.42 177.03">
    <defs>
        <style>
            svg path {
                fill: none;
                stroke-miterlimit: 10;
                stroke-linecap: round;
            }

            svg circle {
                fill: none;
                stroke-width: 4px;
                stroke-linecap: round;
            }

            svg circle.cls-5 {
                stroke-dasharray: 48;
                stroke-dashoffset: 48;
                stroke: url(#linear-gradient-5);
                animation: line 1s ease forwards 1.4s;
            }

            svg circle.cls-6 {
                stroke-dasharray: 48;
                stroke-dashoffset: 48;
                stroke: url(#linear-gradient-6);
                animation: line 1s ease forwards 1.6s;
            }

            svg circle.cls-7 {
                stroke-dasharray: 48;
                stroke-dashoffset: 48;
                stroke: url(#linear-gradient-7);
                animation: line 1s ease forwards 1.8s;
            }

            svg path#O.cls-2 {
                opacity: 0;
                fill: url(#linear-gradient-2);
                animation: opacity 1.5s ease forwards 2s;
            }

            @keyframes opacity {
                0% {
                    opacity: 0;
                }

                100% {
                    opacity: 1;
                }
            }

            svg path#J.cls-4 {
                stroke-width: 6px;
                stroke: url(#linear-gradient-4);
                stroke-dasharray: 848;
                stroke-dashoffset: 848;
                animation: line 5s ease forwards 0s;
            }
            svg path#W.cls-3 {
                stroke-width: 6px;
                stroke: url(#linear-gradient-3);
                stroke-dasharray: 920;
                stroke-dashoffset: 920;
                animation: line 5s ease forwards 1s;
            }
            svg path#C.cls-1 {
                stroke-width: 6px;
                stroke: url(#linear-gradient);
                stroke-dasharray: 810;
                stroke-dashoffset: 810;
                animation: line 5s ease forwards 3s;
            }

            @keyframes line {
                100% {
                    stroke-dashoffset: 0;
                }
            }
        </style>

        <linearGradient id="linear-gradient" x1="300.31" y1="170.28" x2="300.31" y2="279"
            gradientUnits="userSpaceOnUse">
            <stop offset="0" stop-color="#f0f" />
            <stop offset="1" stop-color="#00efff" />
        </linearGradient>
        <linearGradient id="linear-gradient-2" x1="340.24" y1="131.09" x2="340.24" y2="70.54"
            gradientTransform="matrix(1, 0, 0, -1, -127.96, 351.75)" gradientUnits="userSpaceOnUse">
            <stop offset="0" stop-color="#f0f" />
            <stop offset="1" stop-color="#00f2ff" />
        </linearGradient>
        <linearGradient id="linear-gradient-3" x1="215.74" y1="108.85" x2="215.74" y2="208.23"
            xlink:href="#linear-gradient" />
        <linearGradient id="linear-gradient-4" x1="128.13" y1="156.35" x2="128.13" y2="285.88"
            gradientTransform="matrix(1, 0, 0, 1, 0, 0)" xlink:href="#linear-gradient-2" />
        <linearGradient id="linear-gradient-5" x1="69.69" y1="144.64" x2="69.69" y2="163.73"
            gradientTransform="matrix(1, 0, 0, 1, 0, 0)" xlink:href="#linear-gradient-2" />
        <linearGradient id="linear-gradient-6" x1="69.69" y1="60.42" x2="69.69" y2="79.59"
            gradientTransform="matrix(1, 0, 0, 1, 0, 0)" xlink:href="#linear-gradient-2" />
        <linearGradient id="linear-gradient-7" x1="21.36" y1="77.64" x2="21.36" y2="96.49"
            gradientTransform="matrix(1, 0, 0, 1, 0, 0)" xlink:href="#linear-gradient-2" />
    </defs>

    <title>JWOC</title>

    <path id="C" class="cls-1"
        d="M334.08,197.11l7.68-19.63a3,3,0,0,0-1.67-3.83,3.08,3.08,0,0,0-1.08-.2H282.82c-14,0-24.2,11.35-24.2,25.34v52.83c0,14,10.23,24.21,24.2,24.21h56.23c2.07,0,3.49-.94,2.75-2.84l-7.74-20.23a3.89,3.89,0,0,0-3.63-2.5H280.57a2.62,2.62,0,0,1-2.62-2.61h0V201.69a2.62,2.62,0,0,1,2.62-2.62h0l49.83.52A3.9,3.9,0,0,0,334.08,197.11Z"
        transform="translate(-81.75 -108.85)" />
    <path id="O" class="cls-2"
        d="M202.15,281c-13.24-3.67-22-17.49-20.73-32.16A31,31,0,1,1,222.25,281s-2.84,1.07-2.84-1.78,1.65-11.1-1.54-14.07a.09.09,0,0,1,0-.13.08.08,0,0,1,.06,0c2.21-.24,20.77-2.95,10.6-23.32a16.25,16.25,0,0,0,0-8,14.34,14.34,0,0,0-8.53,3.41,29.18,29.18,0,0,0-15.35,0s-4.55-3.41-8-3.41c0,0-2.28,2.84-.57,8,0,0-10.77,19.85,10.15,23.32a.09.09,0,0,1,.06.09h0c-.18.53-1.21,3.54-1.7,4.47-.57,1.14-6.52,1.14-7.78-1.22a9.51,9.51,0,0,0-.91-1.5c-1.26-1.62-3.92-4.42-6-2.49a.1.1,0,0,0,0,.14l0,0c.62.5,4.28,3.52,4.93,6a2.58,2.58,0,0,0,1,1.47,10,10,0,0,0,8.32,1.65.34.34,0,0,1,.42.23s0,.06,0,.09v5.82S204.23,281.54,202.15,281Z"
        transform="translate(-81.75 -108.85)" />
    <path id="W" class="cls-3"
        d="M153.86,116.5,195.49,204a1.87,1.87,0,0,0,2.49.92,1.83,1.83,0,0,0,.92-.92L216,166.62,233.62,204a1.89,1.89,0,0,0,2.48.94A1.91,1.91,0,0,0,237,204l40.6-87.48a3.14,3.14,0,0,0-2.85-4.45H258.91a3.16,3.16,0,0,0-2.84,1.81l-20.74,44.82-18.24-38.11a1.2,1.2,0,0,0-1.59-.56,1.17,1.17,0,0,0-.56.56l-17.7,38.11-20.79-44.82a3.13,3.13,0,0,0-2.84-1.82H156.69a3.13,3.13,0,0,0-3.13,3.13A3,3,0,0,0,153.86,116.5Z"
        transform="translate(-81.75 -108.85)" />
    <path id="J" class="cls-4"
        d="M137,253.54c-1.71,3.15-3.15,6.56-3.15,10.41a18.76,18.76,0,1,0,28.12-16.27l.21-54a18.75,18.75,0,1,0-20.07.86l.27,36.05a45.56,45.56,0,0,0-15.92-2.84c-9.67,0-13.18-16.44-13.18-16.44,4.88-3.41,9.2-10.16,9.2-16.55a18.77,18.77,0,1,0-28.12,16.27S91.74,245.4,131,249.38C131,249.38,138.41,250.87,137,253.54Z"
        transform="translate(-81.75 -108.85)" />

    <circle id="J_o" class="cls-5" cx="69.69" cy="154.18" r="7.43" />
    <circle id="J_o" class="cls-6" cx="69.69" cy="70" r="7.47" />
    <circle id="J_o" class="cls-7" cx="21.36" cy="87.07" r="7.31" />
</svg>