<svg xmlns="http://www.w3.org/2000/svg" xmlns:xlink="http://www.w3.org/1999/xlink" viewBox="0 0 339.26 331.79"><defs><style>.a{fill:none;stroke:#454258;stroke-width:5px;}.a,.b,.c,.d,.e{stroke-miterlimit:10;}.b,.e{stroke:#dbe2e8;}.b{stroke-width:11px;fill:url(#a);}.c,.d{fill:#fff;stroke:none;}.c{stroke-width:0px;}.e{stroke-width:7px;fill:url(#b);}</style><linearGradient id="a" x1="129.22" y1="152.58" x2="372.36" y2="395.72" gradientTransform="translate(-30.55 30.06) rotate(-6.58)" gradientUnits="userSpaceOnUse"><stop offset="0" stop-color="#ffc63e"/><stop offset="1" stop-color="#ff273d"/></linearGradient><linearGradient id="b" x1="127.76" y1="8.07" x2="149.82" y2="30.13" gradientTransform="matrix(1, 0, 0, 1, 0, 0)" xlink:href="#a"/></defs><title>registration_closed</title><polyline class="a" points="19.59 135.8 139.83 17.02 296.8 103.92"/><path class="b" d="M386.45,363.56,137.6,392.25A31.26,31.26,0,0,1,103,364.77L86.08,218.39a31.26,31.26,0,0,1,27.47-34.64L362.4,155.06A31.26,31.26,0,0,1,397,182.53l16.88,146.38A31.27,31.27,0,0,1,386.45,363.56Z" transform="translate(-80.37 -66.17)"/><path class="c" d="M146.15,302.06a18,18,0,0,1,6-8,20.24,20.24,0,0,1,9.8-3.85,19.46,19.46,0,0,1,12.36,2.11,17.78,17.78,0,0,1,7.92,9.13l-10.44,1.36a8.61,8.61,0,0,0-3.79-3.29,9.42,9.42,0,0,0-5-.64,9.14,9.14,0,0,0-6.71,4,13.72,13.72,0,0,0,2.14,16.32,9.1,9.1,0,0,0,7.5,2.12,9.31,9.31,0,0,0,4.7-1.91,8.45,8.45,0,0,0,2.81-4.15l10.44-1.37a17.63,17.63,0,0,1-5.3,10.84A19.73,19.73,0,0,1,167.19,330a20.49,20.49,0,0,1-10.46-1.2,18.14,18.14,0,0,1-7.89-6.12,22.62,22.62,0,0,1-2.69-20.57Z" transform="translate(-80.37 -66.17)"/><path class="c" d="M200,317.92l12.44-1.63,1,7.33-21.93,2.87-5.1-39,9.49-1.24Z" transform="translate(-80.37 -66.17)"/><path class="c" d="M226,319.77a19.28,19.28,0,0,1-8.21-6.19A21.17,21.17,0,0,1,215.14,293a19.32,19.32,0,0,1,6.34-8.06,21.38,21.38,0,0,1,20.16-2.64,19,19,0,0,1,8.15,6.17,21.45,21.45,0,0,1,2.66,20.57,19.07,19.07,0,0,1-6.29,8.08A21.29,21.29,0,0,1,226,319.77Zm16.34-11.52a13.58,13.58,0,0,0-2.16-16.46,10.77,10.77,0,0,0-15,1.93c-1.61,2.28-2.18,5.16-1.73,8.64a11.86,11.86,0,0,0,3.89,7.88,10.71,10.71,0,0,0,15-2Z" transform="translate(-80.37 -66.17)"/><path class="c" d="M267.92,315.47a12.6,12.6,0,0,1-6-3.4,11.34,11.34,0,0,1-3-6.27l10.11-1.32a4.94,4.94,0,0,0,1.93,3.11,4.89,4.89,0,0,0,3.48.7,5.26,5.26,0,0,0,3.2-1.41,3.27,3.27,0,0,0,.87-2.85,3.19,3.19,0,0,0-1.28-2.26,7.78,7.78,0,0,0-2.59-1.24,39.23,39.23,0,0,0-4.21-.87,43,43,0,0,1-6.47-1.52,11.53,11.53,0,0,1-4.56-2.91,9.68,9.68,0,0,1-2.5-5.71,10.32,10.32,0,0,1,2.83-9q3.54-3.6,9.87-4.43t10.79,1.73a11.15,11.15,0,0,1,5.34,8l-10.27,1.35a4,4,0,0,0-1.78-2.79,5,5,0,0,0-3.42-.66,4.1,4.1,0,0,0-2.65,1.28,3.32,3.32,0,0,0-.71,2.78,3.28,3.28,0,0,0,2.16,2.71A29.35,29.35,0,0,0,275,292a51.3,51.3,0,0,1,6.45,1.64,11.73,11.73,0,0,1,4.53,2.85,9.17,9.17,0,0,1,2.47,5.5,11.32,11.32,0,0,1-.9,6.27,12,12,0,0,1-4.35,5,16.92,16.92,0,0,1-7.4,2.61A20.05,20.05,0,0,1,267.92,315.47Z" transform="translate(-80.37 -66.17)"/><path class="c" d="M301.15,280.24l1,7.88,12.71-1.66,1,7.33-12.71,1.66,1.11,8.55,14.39-1.88,1,7.61-23.88,3.12-5.09-39,23.87-3.12,1,7.6Z" transform="translate(-80.37 -66.17)"/><path class="c" d="M346.39,269.07a17.54,17.54,0,0,1,8,5.92,21.93,21.93,0,0,1,2.66,20.35,17.43,17.43,0,0,1-6.26,7.82A22.8,22.8,0,0,1,340.4,307l-14.61,1.91-5.09-39L335.3,268A22.79,22.79,0,0,1,346.39,269.07Zm.32,25.76q2.61-3.33,1.91-8.72t-4.09-8q-3.4-2.61-8.78-1.9l-4.5.59,3,22.65,4.5-.59Q344.1,298.16,346.71,294.83Z" transform="translate(-80.37 -66.17)"/><path class="d" d="M120.26,273.77,113.12,264l-1.63.21,1.35,10.51-6.78.88-3.59-27.85,11.39-1.47a12.65,12.65,0,0,1,5.76.43,8.08,8.08,0,0,1,3.88,2.7,9,9,0,0,1,1.72,4.32,8.33,8.33,0,0,1-.93,5.16,8.45,8.45,0,0,1-4.22,3.69l7.85,10.2Zm-9.39-14.36,4.21-.54a3.85,3.85,0,0,0,2.67-1.27,3.42,3.42,0,0,0,.6-2.7,3.34,3.34,0,0,0-1.25-2.38,3.88,3.88,0,0,0-2.92-.55l-4.2.54Z" transform="translate(-80.37 -66.17)"/><path class="d" d="M135.82,249l.73,5.64,9.08-1.17.68,5.23-9.09,1.17L138,266l10.27-1.32.7,5.43-17,2.2-3.6-27.85,17.06-2.2.7,5.44Z" transform="translate(-80.37 -66.17)"/><path class="d" d="M169.42,248.07a5,5,0,0,0-2.44-1.84,7.12,7.12,0,0,0-3.4-.31,6.85,6.85,0,0,0-5,2.84,9.63,9.63,0,0,0,1.62,11.77,7.63,7.63,0,0,0,6,1.42,7,7,0,0,0,4.06-1.81,7.29,7.29,0,0,0,2-4l-8.61,1.11-.65-5,14.76-1.91.82,6.31a13.55,13.55,0,0,1-6.08,9.17,14.29,14.29,0,0,1-6.09,2.16,15,15,0,0,1-7.6-.85,13,13,0,0,1-5.68-4.37,16,16,0,0,1-1.9-14.7,13,13,0,0,1,4.37-5.69,14.92,14.92,0,0,1,7.11-2.75,14.44,14.44,0,0,1,8.74,1.33,11.52,11.52,0,0,1,5.41,6.12Z" transform="translate(-80.37 -66.17)"/><path class="d" d="M186.81,236.87l3.59,27.85-6.78.88L180,237.75Z" transform="translate(-80.37 -66.17)"/><path class="d" d="M199.83,262.78a9,9,0,0,1-4.25-2.44,8.09,8.09,0,0,1-2.13-4.48l7.22-.93a3.51,3.51,0,0,0,1.38,2.22,3.46,3.46,0,0,0,2.48.51,3.78,3.78,0,0,0,2.29-1,2.53,2.53,0,0,0-.28-3.66,5.89,5.89,0,0,0-1.85-.89,29.39,29.39,0,0,0-3-.62,31,31,0,0,1-4.62-1.1,8.18,8.18,0,0,1-3.25-2.08,6.94,6.94,0,0,1-1.78-4.08,7.4,7.4,0,0,1,2-6.46,11.68,11.68,0,0,1,7.06-3.15,11.81,11.81,0,0,1,7.7,1.25,8,8,0,0,1,3.81,5.74l-7.34.95a2.91,2.91,0,0,0-1.27-2,3.52,3.52,0,0,0-2.44-.47,3,3,0,0,0-1.9.91,2.42,2.42,0,0,0-.51,2,2.36,2.36,0,0,0,1.54,1.94,21.25,21.25,0,0,0,4.18,1.12,36.06,36.06,0,0,1,4.61,1.18,8.5,8.5,0,0,1,3.23,2,6.53,6.53,0,0,1,1.75,3.93,8,8,0,0,1-.65,4.48,8.62,8.62,0,0,1-3.11,3.55,12.22,12.22,0,0,1-5.29,1.85A14.36,14.36,0,0,1,199.83,262.78Z" transform="translate(-80.37 -66.17)"/><path class="d" d="M236.16,230.51l.7,5.43-7.38,1,2.89,22.41-6.78.87-2.89-22.41-7.38.95-.7-5.43Z" transform="translate(-80.37 -66.17)"/><path class="d" d="M257.37,256.09l-7.15-9.77-1.63.21L250,257l-6.79.88-3.59-27.85L251,228.6a12.65,12.65,0,0,1,5.76.43,8,8,0,0,1,3.88,2.7,8.88,8.88,0,0,1,1.72,4.32,8.39,8.39,0,0,1-.92,5.16,8.52,8.52,0,0,1-4.23,3.69L265,255.1ZM248,241.73l4.21-.54a3.94,3.94,0,0,0,2.68-1.27,3.5,3.5,0,0,0,.6-2.7,3.38,3.38,0,0,0-1.26-2.38,3.87,3.87,0,0,0-2.91-.55l-4.21.54Z" transform="translate(-80.37 -66.17)"/><path class="d" d="M285.73,247.43l-10.39,1.34-1,5.13-7.09.92,6.48-29.15,7.85-1,13.67,26.55-7.18.92Zm-2.42-5-4.77-9.75-2.09,10.63Z" transform="translate(-80.37 -66.17)"/><path class="d" d="M314.71,220.38l.7,5.43-7.38,1,2.89,22.41-6.78.88-2.89-22.42-7.38,1-.7-5.43Z" transform="translate(-80.37 -66.17)"/><path class="d" d="M324.9,219.06l3.6,27.85-6.79.88-3.59-27.85Z" transform="translate(-80.37 -66.17)"/><path class="d" d="M339.19,244a13.79,13.79,0,0,1-5.86-4.42,14.41,14.41,0,0,1-2.87-7.12,14.18,14.18,0,0,1,1-7.58,13.71,13.71,0,0,1,4.54-5.75,14.66,14.66,0,0,1,7-2.76,14.81,14.81,0,0,1,7.44.9,13.54,13.54,0,0,1,5.81,4.41,15.37,15.37,0,0,1,1.88,14.71,13.73,13.73,0,0,1-4.5,5.76A15.2,15.2,0,0,1,339.19,244Zm11.68-8.2A9.71,9.71,0,0,0,349.36,224a7.7,7.7,0,0,0-10.72,1.36,9.78,9.78,0,0,0,1.52,11.8,7.65,7.65,0,0,0,10.71-1.4Z" transform="translate(-80.37 -66.17)"/><path class="d" d="M389.51,239.05l-6.78.87-13.56-15.71,2.21,17.17-6.78.88L361,214.41l6.79-.88,13.57,15.8-2.23-17.26,6.79-.87Z" transform="translate(-80.37 -66.17)"/><circle class="e" cx="138.79" cy="19.1" r="15.6"/></svg>