<svg xmlns="http://www.w3.org/2000/svg" viewBox="0 0 324.07 322.47" fill="none" stroke="#00dbff" xmlns:v="https://vecta.io/nano"><ellipse cx="162.04" cy="161.24" rx="33.56" ry="33.4" stroke-width="3"/><g stroke-miterlimit="10"><path d="M206.04 188.8a52.13 52.13 0 0 1-90.47-4.4m46.46-74.89a51.86 51.86 0 0 1 52 51.73m-103.99 0c.035-23.467 15.838-43.98 38.52-50m16.78 115.58c-28.121.167-53.285-17.435-62.771-43.908s-1.227-56.051 20.601-73.782M158.46 95c29.404-.176 55.466 18.896 64.192 46.976s-1.936 58.564-26.262 75.084" stroke-width="2"/><path d="M161.24 68.75h1.59V84.6h-1.59zm-6.479.287l1.586-.11 1.1 15.812-1.586.11zM150.53 85.45l1.57-.22-2.22-15.69-1.57.22 2.22 15.69zm-5.29.99l1.56-.33-3.31-15.5-1.56.33 3.31 15.5zm-5.2 1.35l1.53-.44-4.39-15.23-1.53.43 4.39 15.24zm-19.49 8.88l1.34-.84-8.44-13.44-1.34.84 8.44 13.44zm-4.43 3.03l1.29-.92-9.37-12.83-1.28.93 9.36 12.82zm-4.2 3.34l1.22-1.01-10.24-12.14-1.22 1.01 10.24 12.14zm-3.96 3.62l1.14-1.09-11.06-11.4-1.14 1.09 11.06 11.4zm-3.69 3.89l1.06-1.17-11.84-10.61-1.06 1.18 11.84 10.6zm-3.42 4.14l.98-1.25-12.55-9.76-.98 1.25 12.55 9.76zm-3.11 4.36l.89-1.32-13.21-8.86-.89 1.31 13.21 8.87zm-7.41 14.22l.59-1.46-14.76-5.94-.6 1.46 14.77 5.94zm-1.79 5.05l.49-1.51-15.14-4.89-.5 1.5 15.15 4.9zm-1.43 5.15l.39-1.53-15.45-3.83-.39 1.53 15.45 3.83zm-1.06 5.25l.28-1.56-15.69-2.75-.27 1.56 15.68 2.75zm-.69 5.3l.17-1.57-15.84-1.66-.17 1.58 15.84 1.65zm-16.235 4.79l.055-1.579 15.92.559-.055 1.579zm.058 6.462l-.055-1.579 15.92-.559.055 1.579zM89.04 185.68l-.49-1.5-15.15 4.9.49 1.5 15.15-4.9zm1.89 5.01l-.59-1.47-14.77 5.94.6 1.47 14.76-5.94zm2.24 4.87l-.7-1.43-14.31 6.95.7 1.42 14.31-6.94zm5.47 9.2l-.89-1.31-13.2 8.86.89 1.31 13.2-8.86zm3.21 4.29l-.98-1.24-12.55 9.75.98 1.25 12.55-9.76zm7.27 7.88l-1.14-1.1-11.07 11.4 1.15 1.09 11.06-11.39zm4.03 3.53l-1.21-1.01-10.24 12.14 1.22 1.01 10.23-12.14zm4.27 3.25l-1.28-.93-9.36 12.82 1.28.93 9.36-12.82zm4.49 2.95l-1.35-.84-8.43 13.44 1.34.84 8.44-13.44zm9.54 4.92l-1.45-.64-6.48 14.47 1.46.65 6.47-14.48zm5.01 1.95l-1.49-.54-5.45 14.89 1.49.54 5.45-14.89zm10.36 2.84l-1.55-.33-3.31 15.5 1.55.33 3.31-15.5zm5.31.87l-1.58-.22-2.22 15.7 1.58.22 2.22-15.7zm4.237 16.322l-1.586-.11 1.1-15.812 1.586.11zm6.483.168h-1.59v-15.85h1.59zm6.488-.286l-1.586.11-1.1-15.812 1.586-.11zm4.222-16.424l-1.57.22 2.22 15.69 1.57-.22-2.22-15.69zm15.59-4.04l-1.5.54 5.45 14.89 1.49-.54-5.44-14.89zm4.96-2.05l-1.45.64 6.48 14.48 1.45-.65-6.48-14.47zm4.81-2.4l-1.41.74 7.48 13.99 1.41-.74-7.48-13.99zm4.63-2.72l-1.35.83 8.44 13.44 1.35-.83-8.44-13.44zm4.42-3.04l-1.28.93 9.36 12.82 1.28-.93-9.36-12.82zm4.2-3.34l-1.21 1.02 10.23 12.14 1.22-1.02-10.24-12.14zm3.96-3.62l-1.14 1.1 11.06 11.4 1.14-1.1-11.06-11.4zm10.22-12.38l-.89 1.31 13.21 8.86.89-1.31-13.21-8.86zm2.8-4.57l-.79 1.37 13.79 7.93.8-1.37-13.8-7.93zm2.48-4.75l-.7 1.42 14.32 6.95.69-1.42-14.31-6.95zm2.13-4.91l-.59 1.47 14.77 5.94.59-1.47-14.77-5.94zm1.79-5.04l-.49 1.5 15.15 4.9.49-1.51-15.15-4.89zm1.43-5.16l-.39 1.53 15.46 3.84.38-1.54-15.45-3.83zm1.06-5.25l-.28 1.56 15.69 2.75.27-1.55-15.68-2.76zm.69-5.3l-.17 1.57 15.85 1.66.16-1.57-15.84-1.66zm-.17-16.02l.17 1.57 15.84-1.66-.17-1.57-15.84 1.66zm-.8-5.29l.27 1.55 15.69-2.75-.28-1.55-15.68 2.75zm-1.17-5.22l.38 1.53 15.45-3.83-.38-1.54-15.45 3.84zm-1.54-5.13l.49 1.5 15.15-4.89-.49-1.51-15.15 4.9zm-1.89-5.01l.59 1.47 14.77-5.94-.59-1.46-14.77 5.93zm-2.24-4.86l.7 1.42 14.31-6.95-.69-1.42-14.32 6.95zm-2.57-4.7l.79 1.37 13.79-7.92-.79-1.37-13.79 7.92zm-2.9-4.5l.89 1.31 13.2-8.87-.89-1.31-13.2 8.87zm-3.21-4.3l.98 1.25 12.55-9.76-.98-1.25-12.55 9.76zm-3.49-4.06l1.06 1.17 11.84-10.6-1.07-1.18-11.83 10.61zm-3.78-3.81l1.14 1.1 11.07-11.4-1.15-1.1-11.06 11.4zm-4.03-3.54l1.22 1.02 10.23-12.14-1.21-1.02-10.24 12.14zm-4.27-3.25l1.28.93 9.36-12.82-1.28-.93-9.36 12.82zm-14.03-7.86l1.45.64 6.48-14.48-1.45-.64-6.48 14.48zm-5.01-1.96l1.49.54 5.45-14.89-1.49-.54-5.45 14.89zm-10.36-2.84l1.55.33 3.32-15.5-1.56-.33-3.31 15.5zm-5.3-.87l1.57.22 2.22-15.69-1.58-.22-2.21 15.69z"/><path d="M168.591 69.542l1.59.111-1.11 15.85-1.59-.111z" stroke-width="1.002"/></g><ellipse cx="162.04" cy="161.24" rx="108.2" ry="107.66" stroke-width="2"/><g stroke-miterlimit="10"><path d="M162.03 287.47a126.87 126.87 0 0 1-101.86-51m228.73-75.23a126 126 0 0 1-55.75 104.55M162.03 35.01a126.93 126.93 0 0 1 112.39 67.62M86.41 59.88a126.54 126.54 0 0 1 57.3-23.56M43.92 207.4A125.87 125.87 0 0 1 64.51 80.5" stroke-width="9"/><path d="M67.22 290.16A159.28 159.28 0 0 1 1.5 161.24C1.5 73.02 73.37 1.5 162.03 1.5m16.42.83c80.95 8.18 144.12 76.2 144.12 158.91 0 88.22-71.87 159.74-160.54 159.74a161.93 161.93 0 0 1-32.73-3.33" stroke-width="3"/></g></svg>